<svg width="936" height="717" viewBox="0 0 936 717" fill="none" xmlns="http://www.w3.org/2000/svg">
<g id="Bottom/Standing/Jogging">
<path id="Leg" fill-rule="evenodd" clip-rule="evenodd" d="M393 0L615.919 372.681L783.045 687.751H819.042L539.021 0L393 0Z" fill="#997659"/>
<g id="Right Shoe">
<path id="shoe" fill-rule="evenodd" clip-rule="evenodd" d="M769.349 669.852C766.134 668.438 762.313 669.87 761.115 673.172C758.931 679.195 756 688.226 756 693.317C756 701.432 758.704 717 758.704 717C768.117 717 927.909 717 927.909 717C927.909 717 934.505 695.195 920.294 693.457C906.084 691.718 896.685 690.317 896.685 690.317L818.04 655.257C816.496 654.568 814.689 655.291 814.045 656.853L808.99 669.116C808.99 669.116 795.835 675.254 787.61 675.254C782.603 675.254 774.737 672.223 769.349 669.852Z" fill="#E4E4E4"/>
</g>
<path id="Pant" fill-rule="evenodd" clip-rule="evenodd" d="M736.629 637.299L806.049 616.299C806.049 616.299 760.427 479.913 694.216 316.123C628.005 152.333 552 0 552 0H355.932C355.932 0 440.434 192.695 535.098 350.176C629.762 507.657 736.629 637.299 736.629 637.299Z" fill="#DB2721"/>
<path id="Leg_2" fill-rule="evenodd" clip-rule="evenodd" d="M378.35 0C357.311 130.963 316.731 298.282 312.902 303.446C310.349 306.888 218.438 337.687 37.1697 395.841L44.9455 427.584C261.108 396.395 375.007 372.198 386.642 354.992C404.096 329.183 491.246 125.289 525 0H378.35Z" fill="#B28B67"/>
<path id="Pant_2" fill-rule="evenodd" clip-rule="evenodd" d="M100.889 368.401L114.585 419.526C276.261 433.706 375.324 423.46 411.773 388.788C448.222 354.116 489.764 224.52 536.397 0H349.434C319.889 183.852 303.371 279.636 299.881 287.354C296.39 295.072 230.06 322.088 100.889 368.401Z" fill="#FF4133"/>
<g id="Left Shoe">
<path id="shoe_2" fill-rule="evenodd" clip-rule="evenodd" d="M50.793 390.222C51.628 386.81 49.5542 383.296 46.0941 382.69C39.7829 381.585 30.3804 380.267 25.3668 381.151C17.3753 382.56 2.51316 387.926 2.51316 387.926C4.14783 397.197 31.8954 554.561 31.8954 554.561C31.8954 554.561 54.5141 557.27 53.7587 542.974C53.0034 528.677 52.751 519.178 52.751 519.178L73.6221 435.639C74.0318 434 73.0067 432.345 71.356 431.982L58.4017 429.133C58.4017 429.133 50.0728 417.244 48.6446 409.144C47.7751 404.213 49.3936 395.94 50.793 390.222Z" fill="#E4E4E4"/>
</g>
</g>
</svg>
