<svg width="900" height="717" viewBox="0 0 900 717" fill="none" xmlns="http://www.w3.org/2000/svg">
<g id="Bottom/Standing/Shorts">
<path id="Leg" fill-rule="evenodd" clip-rule="evenodd" d="M384 0L496.893 369.073L551.58 682.945H594.46L536.673 0H384Z" fill="#997659"/>
<path id="Leg_2" fill-rule="evenodd" clip-rule="evenodd" d="M343.613 0C351.281 202.641 342.257 307.166 340.541 325.577C338.825 343.988 315.325 463.364 259.691 689.125L305.382 673.433C393.306 466.377 423.267 358.766 433.351 331.577C443.435 304.388 470.218 193.862 513.7 0H343.613Z" fill="#B28B67"/>
<g id="Left Shoe">
<path id="shoe" fill-rule="evenodd" clip-rule="evenodd" d="M268.349 669.852C265.134 668.438 261.313 669.87 260.115 673.172C257.931 679.195 255 688.226 255 693.317C255 701.432 257.704 717 257.704 717C267.117 717 426.909 717 426.909 717C426.909 717 433.505 695.195 419.294 693.457C405.084 691.718 395.685 690.317 395.685 690.317L317.04 655.257C315.496 654.568 313.689 655.291 313.045 656.853L307.99 669.116C307.99 669.116 294.835 675.254 286.61 675.254C281.603 675.254 273.737 672.223 268.349 669.852Z" fill="#E4E4E4"/>
</g>
<g id="Right Shoe">
<path id="shoe_2" fill-rule="evenodd" clip-rule="evenodd" d="M550.349 669.852C547.134 668.438 543.313 669.87 542.115 673.172C539.931 679.195 537 688.226 537 693.317C537 701.432 539.704 717 539.704 717C549.117 717 708.909 717 708.909 717C708.909 717 715.505 695.195 701.294 693.457C687.084 691.718 677.685 690.317 677.685 690.317L599.04 655.257C597.496 654.568 595.689 655.291 595.045 656.853L589.99 669.116C589.99 669.116 576.835 675.254 568.61 675.254C563.603 675.254 555.737 672.223 550.349 669.852Z" fill="#E4E4E4"/>
</g>
<path id="Bottom" fill-rule="evenodd" clip-rule="evenodd" d="M369 0L417 188.039H563.611L541.751 0H369Z" fill="#69A1AC"/>
<path id="Bottom_2" fill-rule="evenodd" clip-rule="evenodd" d="M342 0C318.31 71.0125 333 188.039 333 188.039H482.611L523.751 0L342 0Z" fill="#89C5CC"/>
</g>
</svg>
