<svg width="768" height="573" viewBox="0 0 768 573" fill="none" xmlns="http://www.w3.org/2000/svg">
<g id="Body/Hoodie">
<path id="Skin" fill-rule="evenodd" clip-rule="evenodd" d="M668.038 358.905L572.344 288.634L551.189 340.927L645.952 380.223C672.753 411.705 687.739 424.829 690.911 419.595C693.586 415.182 691.495 411.051 689.57 407.246C688.069 404.281 686.669 401.515 687.7 398.967C690.054 393.148 708.057 393.761 725.116 395.073C742.176 396.385 737.204 388.794 733.091 385.046C715.677 374.622 693.993 365.909 668.038 358.905ZM166.194 482.725C174.985 464.889 204.924 291.06 204.924 291.06L267.616 291.306C267.616 291.306 209.552 478.748 204.924 490.217C198.912 505.116 209.124 526.762 216.048 541.44C217.12 543.711 218.112 545.815 218.954 547.701C209.346 552.001 204.73 546.804 199.865 541.325C194.369 535.137 188.553 528.59 174.864 534.958C169.575 537.419 164.57 540.328 159.68 543.17C142.791 552.988 127.275 562.007 106.167 548.983C102.821 546.918 99.1539 539.144 108.014 533.069C130.087 517.934 161.896 491.444 166.194 482.725Z" fill="#B28B67"/>
<path id="Coat Back" fill-rule="evenodd" clip-rule="evenodd" d="M383.085 27.9961L409.026 23.5466C505.276 106.693 544.81 266.427 662.789 351.044L634.392 386.243C429.72 360.901 378.991 166.064 383.085 27.9961Z" fill="#E87613"/>
<path id="Shirt" fill-rule="evenodd" clip-rule="evenodd" d="M270 354C270 354 426.023 354 499.534 354C510.023 354 508.047 338.855 506.53 331.213C489.032 243.011 420.724 147.935 420.724 22.3822L354.515 12C299.752 100.075 280.814 208.514 270 354Z" fill="#DDE3E9"/>
<path id="Coat Front" fill-rule="evenodd" clip-rule="evenodd" d="M244.191 417C233.875 441.776 223.759 463.395 214.227 480H165C159.704 308.756 224.536 176.989 278.795 97.5386C266.748 96.6777 255.874 91.6364 249 79.2336C224.801 35.5682 233.54 11.5272 259.402 3.62481C273.623 -0.720629 286.997 2.24539 303.007 5.79587C316.108 8.70118 330.974 11.9978 349.512 12C349.518 12 349.524 12 349.53 12C351.327 12 352.962 12.1204 354.446 12.3506L376.415 13.6042C376.415 13.6042 465.616 315.916 425.617 417H244.191Z" fill="#FF9B21"/>
<path id="Shade" fill-rule="evenodd" clip-rule="evenodd" d="M244.191 417C257.726 384.492 271.605 346.549 284.962 307.363C289.934 350.517 298.214 393.859 312 417H244.191Z" fill="black" fill-opacity="0.1"/>
</g>
</svg>
