<svg width="768" height="651" viewBox="0 0 768 651" fill="none" xmlns="http://www.w3.org/2000/svg">
<g id="Body/Lab Coat">
<path id="Skin" fill-rule="evenodd" clip-rule="evenodd" d="M85.0932 426.851C96.2812 410.413 161.001 235.608 161.001 235.608L214.137 243.324C214.137 243.324 128.583 428.947 122.404 439.661C114.377 453.578 121.477 476.435 126.291 491.934C127.036 494.331 127.726 496.553 128.297 498.538C118.184 501.459 114.337 495.67 110.281 489.568C105.699 482.675 100.852 475.382 86.4092 479.783C80.8293 481.484 75.4683 483.668 70.2307 485.802C52.1388 493.174 35.5186 499.945 16.4293 484.111C13.4029 481.6 10.8536 473.391 20.4728 468.608C44.4376 456.692 79.6236 434.888 85.0932 426.851ZM661.636 345.605L571.077 268.83L546.326 319.52L638.117 365.33C662.656 398.605 676.691 412.742 680.22 407.742C683.196 403.527 681.399 399.26 679.743 395.329C678.453 392.268 677.25 389.41 678.456 386.94C681.21 381.3 699.126 383.167 716.052 385.666C732.979 388.165 728.549 380.245 724.707 376.219C708.063 364.607 687.039 354.402 661.636 345.605Z" fill="#B28B67"/>
<path id="Coat Back" fill-rule="evenodd" clip-rule="evenodd" d="M383.085 18.9962L416.01 8.10799C460.672 119.679 527.282 227.629 638.571 318.811L611.051 366.29C513.243 308.675 420.656 263.918 383.085 177.464C370.475 148.448 382.056 53.691 383.085 18.9962Z" fill="#C5CFD6"/>
<path id="Shirt" fill-rule="evenodd" clip-rule="evenodd" d="M270 333C270 333 411.472 348 492.709 333C499.418 331.761 500.477 320.527 497.365 312.903C448.909 194.173 415.681 90.5749 415.681 8.10791C402.344 14.8316 369 10.1232 369 10.1232C309.259 95.108 281.798 192.618 270 333Z" fill="#323337"/>
<path id="Coat Front" fill-rule="evenodd" clip-rule="evenodd" d="M351.879 3C353.421 1.96089 354.236 1.44397 354.236 1.44397L354.148 3H379.045C380.296 10.3577 382.129 37.6289 384.801 77.394C394.511 221.896 415.307 531.38 459.572 649.818H154.156C160.6 515.165 210.245 354.14 261.673 217.411C223.723 255.167 179.404 318.459 143.586 423.818L86.3778 409.133C144.678 157.915 315.486 28.355 348.629 5.23147C348.952 4.48364 349.274 3.73981 349.595 3H351.879Z" fill="#DDE3E9"/>
</g>
</svg>
