<svg width="768" height="576" viewBox="0 0 768 576" fill="none" xmlns="http://www.w3.org/2000/svg">
<g id="Body/Turtle Neck">
<path id="Skin" fill-rule="evenodd" clip-rule="evenodd" d="M130.194 464.725C138.985 446.889 182.909 217.349 182.909 217.349L248.602 217.596C248.602 217.596 173.552 460.748 168.924 472.217C162.912 487.116 173.124 508.762 180.048 523.44C181.12 525.711 182.112 527.815 182.954 529.701C173.346 534.001 168.73 528.804 163.865 523.325C158.369 517.137 152.553 510.59 138.864 516.959C133.575 519.419 128.57 522.328 123.68 525.171C106.791 534.988 91.2745 544.007 70.1672 530.983C66.8209 528.918 63.1539 521.144 72.0138 515.069C94.0871 499.934 125.896 473.444 130.194 464.725ZM683.463 375.286L598.479 292.381L570.253 341.221L658.625 393.323C680.783 428.228 693.797 443.31 697.667 438.569C700.93 434.571 699.435 430.189 698.057 426.153C696.984 423.008 695.983 420.074 697.358 417.694C700.499 412.26 718.241 415.372 734.952 419.045C751.663 422.719 747.796 414.51 744.244 410.226C728.451 397.48 708.19 385.834 683.463 375.286Z" fill="#B28B67"/>
<path id="Clothes Back" fill-rule="evenodd" clip-rule="evenodd" d="M383.085 30.9962L409.026 26.5467C449.892 171.002 659.858 269.469 672.747 323.47C677.474 343.274 663.222 353.285 670.584 359.317L636.865 384C631.155 377.338 618.97 389.524 593.524 381C568.078 372.476 383.085 202.044 383.085 30.9962Z" fill="#DB2721"/>
<path id="Clothes Front" fill-rule="evenodd" clip-rule="evenodd" d="M336.947 0.836855C330.336 0.37455 324.601 5.35927 324.139 11.9705L322.91 29.5435C274.09 67.1133 153.089 179.38 121.558 388.37C118.245 410.324 124.235 422.083 129.021 431.478C132.295 437.905 135.006 443.226 133.79 449.948L177.919 462.13C177.919 457.166 183.48 453.39 190.656 448.519C201.089 441.436 214.934 432.037 220.053 413.302C224.906 395.543 232.011 373.362 240.5 348.688C241.302 381.367 247.5 411.421 261 436.313C294.682 498.416 489.326 430.309 509.662 366.955C520.513 333.147 505.116 304.764 484.751 267.226C458.902 219.577 425.049 157.175 426.722 50.2007L428.883 19.295C429.346 12.6837 424.361 6.94943 417.75 6.48713L336.947 0.836855Z" fill="#FF4133"/>
</g>
</svg>
