<svg width="768" height="561" viewBox="0 0 768 561" fill="none" xmlns="http://www.w3.org/2000/svg">
<g id="Body/Jacket 2">
<path id="Skin" fill-rule="evenodd" clip-rule="evenodd" d="M702.704 185.113L594 232.851L628.71 277.318L710.122 214.899C750.787 207.43 769.646 201.013 766.699 195.649C764.214 191.126 759.591 190.871 755.333 190.636C752.016 190.453 748.92 190.282 747.229 188.116C743.367 183.168 752.899 167.883 762.565 153.766C772.23 139.648 763.171 140.158 757.868 141.846C740.134 151.715 721.746 166.137 702.704 185.113ZM216 258.198L154.525 246C112.833 355.889 87.9767 416.107 79.957 426.654C74.0761 434.389 37.8079 454.312 13.2595 464.951C3.40605 469.222 5.52165 477.548 8.41164 480.212C26.6407 497.015 43.5875 491.126 62.0349 484.715C67.3755 482.859 72.8418 480.959 78.5015 479.554C93.1505 475.916 97.6083 483.449 101.821 490.568C105.551 496.871 109.089 502.849 119.338 500.464C118.872 498.452 118.299 496.199 117.681 493.767C113.686 478.046 107.794 454.861 116.535 441.391C121.021 434.478 154.176 373.413 216 258.198Z" fill="#B28B67"/>
<path id="Coat Back" fill-rule="evenodd" clip-rule="evenodd" d="M383.085 15.9962L409.026 11.5467C465.529 66.357 488.587 198.037 526.242 215.468C561.843 231.947 612.311 216 672.3 194.468L690.671 235.514C636.165 294.482 520.048 344.301 472.98 315.86C397.729 270.389 380.357 107.981 383.085 15.9962Z" fill="#DB2721"/>
<path id="Shirt" fill-rule="evenodd" clip-rule="evenodd" d="M270 342C270 342 426.023 342 499.534 342C510.023 342 508.047 326.855 506.53 319.213C489.032 231.011 420.724 135.935 420.724 10.3822L354.515 0C299.752 88.0752 280.814 196.514 270 342Z" fill="#DDE3E9"/>
<path id="Coat Front" fill-rule="evenodd" clip-rule="evenodd" d="M351 0H350.244C201.74 91.5132 111.992 233.372 81 425.576L129.112 435C160.983 397.87 200.314 337.103 247.106 252.699C232.75 303.544 222.269 355.69 219 405H425.617C465.616 303.916 376.459 0 376.459 0H362.194H351Z" fill="#FF4133"/>
</g>
</svg>
