<svg width="768" height="561" viewBox="0 0 768 561" fill="none" xmlns="http://www.w3.org/2000/svg">
<g id="Body/Jacket">
<path id="Skin" fill-rule="evenodd" clip-rule="evenodd" d="M667.117 350.273L582.133 267.367L553.907 316.207L642.279 368.309C664.437 403.215 677.451 418.297 681.321 413.555C684.584 409.557 683.088 405.175 681.711 401.139C680.638 397.995 679.636 395.06 681.012 392.681C684.153 387.246 701.895 390.358 718.606 394.032C735.316 397.705 731.45 389.496 727.898 385.212C712.104 372.466 691.844 360.82 667.117 350.273ZM166.194 470.725C174.985 452.889 204.924 279.06 204.924 279.06L267.616 279.306C267.616 279.306 209.552 466.748 204.924 478.217C198.912 493.115 209.124 514.762 216.048 529.44C217.12 531.711 218.112 533.815 218.954 535.701C209.346 540.001 204.73 534.804 199.865 529.325C194.369 523.137 188.553 516.59 174.864 522.958C169.575 525.419 164.57 528.328 159.68 531.17C142.791 540.988 127.275 550.007 106.167 536.983C102.821 534.918 99.1539 527.144 108.014 521.069C130.087 505.934 161.896 479.444 166.194 470.725Z" fill="#B28B67"/>
<path id="Coat Back" fill-rule="evenodd" clip-rule="evenodd" d="M383.085 15.9961L409.026 11.5466C453.689 123.117 531.665 224.493 642.955 315.675L558.859 417.844C447.582 288.014 378.991 154.064 383.085 15.9961Z" fill="#191847"/>
<path id="Shirt" fill-rule="evenodd" clip-rule="evenodd" d="M270 342H501C501 342 420.724 146.813 420.724 10.3822L351.043 0C296.28 88.0752 280.814 196.514 270 342Z" fill="#DDE3E9"/>
<path id="Coat Front" fill-rule="evenodd" clip-rule="evenodd" d="M165 441C190.263 155.988 349.512 0 349.512 0L349.567 0.0492568C349.576 0.032835 349.586 0.0164161 349.595 0H354.143C362.307 0.281129 379.013 1.01302 379.013 1.01302L395.85 49.1306C398.522 137.131 427.053 403.818 427.053 403.818H275.85C276.107 416.046 276.676 428.446 277.592 441H165Z" fill="#2F3676"/>
<path id="Shade" fill-rule="evenodd" clip-rule="evenodd" d="M275.876 405C274.669 351.751 279.393 301.752 287.273 256.506C291.395 310.196 300.009 374.8 318 405H275.876Z" fill="black" fill-opacity="0.1"/>
<path id="Light" fill-rule="evenodd" clip-rule="evenodd" d="M309.333 312L384 277.288V312H309.333Z" fill="white" fill-opacity="0.2"/>
</g>
</svg>
