<svg width="768" height="561" viewBox="0 0 768 561" fill="none" xmlns="http://www.w3.org/2000/svg">
<g id="Body/Long Sleeve">
<path id="Skin" fill-rule="evenodd" clip-rule="evenodd" d="M694.449 179.775L576 195.932L597.252 249L693.363 210.896C734.789 214.983 754.821 213.999 753.458 207.945C752.309 202.839 747.905 201.298 743.849 199.878C740.69 198.772 737.741 197.74 736.706 195.154C734.341 189.25 747.807 177.01 761.08 165.946C774.352 154.881 765.443 152.845 759.842 153.009C739.941 157.674 718.143 166.596 694.449 179.775ZM118.194 470.725C126.985 452.889 203.909 223.349 203.909 223.349L269.602 223.596C269.602 223.596 161.552 466.748 156.924 478.217C150.912 493.116 161.124 514.762 168.048 529.44C169.12 531.711 170.112 533.815 170.954 535.701C161.346 540.001 156.73 534.804 151.865 529.325C146.369 523.137 140.553 516.59 126.864 522.958C121.575 525.419 116.57 528.328 111.68 531.17C94.7905 540.988 79.2745 550.007 58.1672 536.983C54.8209 534.918 51.1539 527.144 60.0138 521.069C82.0871 505.934 113.896 479.444 118.194 470.725Z" fill="#997659"/>
<path id="Clothes Back" fill-rule="evenodd" clip-rule="evenodd" d="M383.848 15L435.283 18.4265C447.95 133.03 516.949 205.418 671.433 180.912L691.957 328.496C547.568 347.157 420.939 289.349 394.987 132.835C388.269 92.3188 382.964 50.1535 383.848 15Z" fill="#AFB9C5"/>
<path id="Clothes" fill-rule="evenodd" clip-rule="evenodd" d="M127.205 441C162.916 250.992 238.29 103.992 353.328 0H358.264H358.431L358.472 0.0478153L436.403 17.8958C436.403 111.508 457.229 181.454 477.252 248.701C485.898 277.741 494.395 306.278 501 336H290.531C287.566 370.053 285.745 405.053 284.797 441H127.205Z" fill="#C5CFD6"/>
<path id="Shade" fill-rule="evenodd" clip-rule="evenodd" d="M290.531 336C296.567 266.672 307.346 201.27 325.164 139.795C321.258 205.537 320.174 287.094 333.307 336H290.531Z" fill="black" fill-opacity="0.1"/>
</g>
</svg>
