<svg width="771" height="561" viewBox="0 0 771 561" fill="none" xmlns="http://www.w3.org/2000/svg">
<g id="Body/Pointing Forward">
<path id="Skin" fill-rule="evenodd" clip-rule="evenodd" d="M580.044 71.0696L475.914 128.101L514.367 169.373L590.03 100.096C629.889 89.111 648.117 81.0752 644.714 75.9883C641.844 71.6992 637.217 71.8481 632.954 71.9853C629.634 72.0922 626.535 72.1919 624.661 70.181C620.382 65.5885 628.546 49.5313 636.944 34.6247C645.343 19.7181 636.362 21.0158 631.227 23.1597C614.421 34.5368 597.36 50.5067 580.044 71.0696ZM684.74 151.093L639 176.22L641.605 222.121C641.605 222.121 671.229 200.739 696.715 193.633C729.212 184.572 742.359 177.653 758.239 157.419C766.736 146.594 773.947 124.831 765.859 117.743C762.757 115.024 751.198 121.447 739.404 128.001C730.416 132.996 721.291 138.066 715.669 139.224C708.101 140.782 708.987 130.972 709.695 123.134C710.203 117.509 710.62 112.899 707.755 114.232C694.366 114.461 684.74 151.093 684.74 151.093Z" fill="#997659"/>
<path id="Sleeve" fill-rule="evenodd" clip-rule="evenodd" d="M425.202 115.396C461.675 115.011 510.312 107.308 562.207 74.3663L582.588 119.816C546.791 155.341 496.458 184.529 452.448 183.293C417.766 182.319 400.04 140.368 425.202 115.396Z" fill="#2026A2"/>
<path id="Clothes" fill-rule="evenodd" clip-rule="evenodd" d="M326.834 426.776C292.16 422.255 260.299 418.101 241.418 421.818C220.234 353.019 237.825 309.702 254.064 269.714C263.851 245.613 273.147 222.722 273.167 196.19C273.224 118.926 335.263 0 344.391 0H347.011H419.35H427.631C431.353 47.8121 447.236 99.5791 463.222 151.679C466.955 163.846 470.694 176.031 474.285 188.188C534.779 201.92 669.108 154.12 669.108 154.12C669.108 154.12 703.019 224.276 700.46 254.151C622.273 294.993 555.26 313.202 500.05 314.405C501.804 347.164 497.817 378.336 484.422 406.818C466.474 444.981 391.727 435.236 326.834 426.776Z" fill="#1F28CF"/>
</g>
</svg>
