<svg width="768" height="627" viewBox="0 0 768 627" fill="none" xmlns="http://www.w3.org/2000/svg">
<g id="Body/Pointing Up">
<path id="Skin" fill-rule="evenodd" clip-rule="evenodd" d="M688.08 38.8872L574.369 73.0225L603.401 121.388L691.814 69.3554C733.085 66.8978 752.585 62.8273 750.314 57.1441C748.399 52.3521 743.842 51.5357 739.644 50.7836C736.374 50.1978 733.322 49.651 731.907 47.2945C728.677 41.9128 740.001 27.9038 751.315 15.0691C762.629 2.23436 753.575 1.63652 748.106 2.66591C729.302 10.3001 709.293 22.3739 688.08 38.8872ZM660.015 343.775L564.321 273.504L543.166 325.797L637.929 365.093C664.73 396.575 679.716 409.699 682.888 404.465C685.563 400.052 683.472 395.921 681.546 392.115C680.046 389.151 678.646 386.385 679.677 383.837C682.031 378.018 700.034 378.631 717.093 379.943C734.152 381.255 729.181 373.664 725.068 369.916C707.654 359.492 685.97 350.779 660.015 343.775Z" fill="#B28B67"/>
<path id="Coat Back" fill-rule="evenodd" clip-rule="evenodd" d="M415.682 84.2603C467.794 181.429 543.151 255.916 652.397 333.348L611.032 379.988C489.054 334.658 424.677 307.309 393.063 215.504C385.128 192.463 379.583 119.013 374.826 80.3664L415.682 84.2603Z" fill="#2026A2"/>
<path id="Shirt" fill-rule="evenodd" clip-rule="evenodd" d="M270 408H501C501 408 422.512 168.624 420.811 79.4147C420.753 76.3827 415.153 71.0399 412.676 71.7396C385.5 79.4147 354.515 66 354.515 66C299.752 154.075 280.814 262.514 270 408Z" fill="#F2F2F2"/>
<path id="Coat Front" fill-rule="evenodd" clip-rule="evenodd" d="M412.459 200.372C448.537 355.131 446.874 481.818 367.222 481.818H244.053C224.491 350.352 275.904 168.071 323.568 76.1298C325.388 72.6188 329.263 66 338.391 66H374.18C374.196 66.0474 374.212 66.0948 374.228 66.1422C384.997 66.2304 396.858 66.6241 409.702 67.0505C475.825 69.2456 568.024 72.3064 671.768 39L684 100.12C590.361 160.345 495.543 206.997 412.459 200.372Z" fill="#1F28CF"/>
</g>
</svg>
