<svg width="768" height="561" viewBox="0 0 768 561" fill="none" xmlns="http://www.w3.org/2000/svg">
<g id="Body/Pregnant">
<path id="Shirt" fill-rule="evenodd" clip-rule="evenodd" d="M545.188 354.791C488.213 473.449 248.374 393.33 248.374 393.33C248.374 372.769 256.529 352.155 265.094 330.506C274.278 307.293 283.932 282.888 284.51 256.082C285.572 206.763 294.794 57.3376 333.28 6.86079C333.98 4.58038 334.691 2.29347 335.413 0L338.077 1.25336C338.492 0.824444 338.911 0.406586 339.333 0L423.304 12.9839C423.304 50.965 447.61 86.9799 469.491 119.401C474.814 127.289 479.995 134.965 484.646 142.404C490.739 152.149 497.615 162.067 504.661 172.231C540.344 223.706 580.391 281.476 545.188 354.791Z" fill="#C1DEE2"/>
<path id="Skin" fill-rule="evenodd" clip-rule="evenodd" d="M437.589 332.361C443.205 303.381 446.848 284.033 448.518 274.317C493.254 324.87 519.098 350.44 526.051 351.026C539.127 352.129 548.789 340.533 551.54 343.793C556.087 357.293 543.244 391.086 518.695 396C506.972 398.346 488.832 374.172 481.358 365.607C478.418 362.238 463.829 351.156 437.589 332.361ZM514.864 177.847C526.46 177.847 532.69 182.641 539.546 192.314C546.403 201.986 552.892 247.605 541.883 247.605C530.874 247.605 484.75 229.97 484.75 218.115C484.75 206.259 516.223 201.239 516.223 192.314C516.223 183.389 503.267 177.847 514.864 177.847Z" fill="#B28B67"/>
<path id="Shade" fill-rule="evenodd" clip-rule="evenodd" d="M319.695 56.1559C290.243 178.952 302.241 282.518 414.175 376.461C412.859 381.181 412.07 384 412.07 384C280.682 292.172 280.619 180.889 319.695 56.1559Z" fill="black" fill-opacity="0.2"/>
</g>
</svg>
