<svg width="771" height="678" viewBox="0 0 771 678" fill="none" xmlns="http://www.w3.org/2000/svg">
<g id="Body/Trench Coat">
<path id="Skin" fill-rule="evenodd" clip-rule="evenodd" d="M75.0813 414.604C86.8363 398.566 157.618 226.126 157.618 226.126L210.451 235.692C210.451 235.692 118.471 418.216 111.922 428.707C103.414 442.336 109.712 465.427 113.983 481.084C114.643 483.506 115.255 485.751 115.757 487.755C105.548 490.32 101.905 484.401 98.0647 478.161C93.7269 471.112 89.1369 463.654 74.5493 467.549C68.9134 469.054 63.4795 471.05 58.1705 473C39.8325 479.735 22.9861 485.923 4.46096 469.432C1.52405 466.817 -0.737252 458.524 9.04299 454.08C33.4091 443.008 69.3347 422.444 75.0813 414.604ZM686.364 325.666L590.669 255.395L569.514 307.688L664.277 346.984C691.078 378.465 706.064 391.589 709.236 386.355C711.911 381.942 709.82 377.811 707.895 374.006C706.395 371.042 704.994 368.275 706.025 365.727C708.379 359.909 726.382 360.521 743.441 361.833C760.501 363.145 755.529 355.554 751.416 351.806C734.002 341.383 712.318 332.669 686.364 325.666Z" fill="#B28B67"/>
<path id="Back Arm" fill-rule="evenodd" clip-rule="evenodd" d="M417.793 6.12451L385.707 19.2829C386.044 27.663 386.011 39.5841 385.973 53.2417C385.854 96.1079 385.687 156.08 396.762 177.365C435.129 251.104 513.91 289.514 601.653 332.295C613.414 338.029 625.337 343.842 637.344 349.829L661.486 300.545C658.689 298.563 655.917 296.57 653.17 294.565C656.963 293.237 660.125 290.235 661.508 286.132C663.889 279.066 660.091 271.408 653.025 269.028C638.666 264.19 625.274 262.15 612.961 263.034C523.047 187.27 462.518 98.5749 417.793 6.12451Z" fill="#69A1AC"/>
<path id="Shirt" fill-rule="evenodd" clip-rule="evenodd" d="M273 341.729C273 341.729 414.472 357.271 495.709 341.729C502.418 340.446 502.124 311.521 499.012 303.622C450.556 180.606 418.681 90.5521 418.681 5.10791C405.344 12.0743 372 7.19592 372 7.19592C312.259 95.2489 284.798 196.28 273 341.729Z" fill="#191847"/>
<path id="Coat Front" fill-rule="evenodd" clip-rule="evenodd" d="M93.5777 343.217C176.944 104.94 347.927 0 347.927 0H352.595H364.132H382.045C378.181 51.107 396.339 125.478 417.404 211.753C451.092 349.731 492.214 518.156 462.572 670.554C426.125 678.694 383.299 673.137 336.937 667.121C270.025 658.438 195.747 648.8 122.648 678C125.467 616.951 161.111 549.371 196.595 482.097C219.087 439.453 241.514 396.931 255.476 356.273C252.273 353.26 250.603 348.742 251.424 344.087L252.987 335.224C254.046 329.218 258.924 324.844 264.683 324.16C265.69 319.659 266.558 315.188 267.275 310.75C270.939 288.074 268.6 265.664 266.288 243.507L266.288 243.506C265.018 231.341 263.756 219.252 263.5 207.236C223.321 243.03 174.684 305.438 133.644 413.613L76.9835 396.94C79.1501 388.891 81.4204 380.974 83.7865 373.189C77.2283 369.574 69.4963 352.41 75.0198 349.548C80.8561 346.525 87.0485 344.421 93.5777 343.217Z" fill="#89C5CC"/>
<path id="Shade Lapel" fill-rule="evenodd" clip-rule="evenodd" d="M360.317 3L344.84 50.5963L376.008 86.2771L347.84 114.317L415.987 231L332.651 114.55L360.317 86.2771L332.651 54.7454L360.317 3Z" fill="black" fill-opacity="0.1"/>
<path id="Buttons" fill-rule="evenodd" clip-rule="evenodd" d="M396 276C402.627 276 408 270.627 408 264C408 257.373 402.627 252 396 252C389.373 252 384 257.373 384 264C384 270.627 389.373 276 396 276ZM411 345C417.627 345 423 339.627 423 333C423 326.373 417.627 321 411 321C404.373 321 399 326.373 399 333C399 339.627 404.373 345 411 345ZM426 402C426 408.627 420.627 414 414 414C407.373 414 402 408.627 402 402C402 395.373 407.373 390 414 390C420.627 390 426 395.373 426 402Z" fill="black" fill-opacity="0.4"/>
</g>
</svg>
