<svg width="1047" height="717" viewBox="0 0 1047 717" fill="none" xmlns="http://www.w3.org/2000/svg">
<g id="Bottom/Sitting/Baggy Pants">
<g id="Seat">
<path id="Seat_2" fill-rule="evenodd" clip-rule="evenodd" d="M207 126C180.49 126 159 147.49 159 174V450C159 476.51 180.49 498 207 498H552C578.51 498 600 476.51 600 450V174C600 147.49 578.51 126 552 126H207ZM255 210C248.373 210 243 215.373 243 222V402C243 408.627 248.373 414 255 414H504C510.627 414 516 408.627 516 402V222C516 215.373 510.627 210 504 210H255Z" fill="#C5CFD6"/>
</g>
<path id="LegLower" fill-rule="evenodd" clip-rule="evenodd" d="M897.477 483C838.329 410.773 798.309 357.226 777.415 322.361C741.64 262.664 712.359 209.544 703.119 189.253C681.085 140.866 753.846 118.208 770.313 140.777C795.237 174.937 848.466 282.429 930 463.252L897.477 483Z" fill="#B28B67"/>
<path id="LegLower_2" fill-rule="evenodd" clip-rule="evenodd" d="M776.273 462L666.196 184.91C642.652 134.399 756.347 101.196 773.65 124.703C812.932 178.072 906.297 388.602 918 404.502L776.273 462Z" fill="#2F3676"/>
<g id="Lower Leg">
<path id="LegLower_3" fill-rule="evenodd" clip-rule="evenodd" d="M483.099 406.431C504.542 375.153 582.536 269.923 625.017 226.383C637.224 213.872 649.136 201.863 660.402 190.672C693.888 157.409 760.571 213.317 727.147 243.614C643.906 319.065 522.453 420.921 512.306 430.003C498.084 442.731 469.623 426.088 483.099 406.431Z" fill="#B28B67"/>
</g>
<g id="Right Shoe">
<path id="shoe" fill-rule="evenodd" clip-rule="evenodd" d="M496.991 393.555C494.914 390.722 490.889 390.052 488.201 392.313C483.297 396.437 476.243 402.793 473.698 407.201C469.641 414.229 464.198 429.063 464.198 429.063C472.35 433.77 610.734 513.666 610.734 513.666C610.734 513.666 627.348 498.08 615.911 489.47C604.474 480.859 597.035 474.946 597.035 474.946L546.456 405.26C545.464 403.892 543.537 403.614 542.198 404.645L531.689 412.738C531.689 412.738 517.227 411.476 510.105 407.363C505.768 404.86 500.471 398.302 496.991 393.555Z" fill="#E4E4E4"/>
</g>
<g id="Right Shoe_2">
<path id="shoe_2" fill-rule="evenodd" clip-rule="evenodd" d="M880.349 468.852C877.134 467.438 873.313 468.87 872.115 472.172C869.931 478.195 867 487.226 867 492.317C867 500.432 869.704 516 869.704 516C879.117 516 1038.91 516 1038.91 516C1038.91 516 1045.5 494.195 1031.29 492.457C1017.08 490.718 1007.69 489.317 1007.69 489.317L929.04 454.257C927.496 453.568 925.689 454.291 925.045 455.853L919.99 468.116C919.99 468.116 906.835 474.254 898.61 474.254C893.603 474.254 885.737 471.223 880.349 468.852Z" fill="#E4E4E4"/>
</g>
<path id="Leg and Butt" fill-rule="evenodd" clip-rule="evenodd" d="M626.586 198.75C626.586 198.75 489.35 176.393 442.741 168.174C354.172 152.557 328.345 104.896 343.615 0.906686L506.803 0.906686C539.196 10.2611 777.502 116.615 777.502 116.615C806.086 130.805 800.763 172.642 795.539 186.426C795.219 187.269 650.977 434.138 650.977 434.138L517.483 349.096L626.837 208.771C626.837 208.771 631.169 200.046 626.586 198.75Z" fill="#5C63AB"/>
</g>
</svg>
