<svg width="909" height="717" viewBox="0 0 909 717" fill="none" xmlns="http://www.w3.org/2000/svg">
<g id="Bottom/Sitting/Skinny Jeans 1">
<g id="Seat">
<g id="Seat_2">
<path id="Seat Stuff" fill-rule="evenodd" clip-rule="evenodd" d="M277.868 126H509.632L540 498H195L277.868 126Z" fill="#C5CFD6"/>
<path id="Seat Stuff_2" fill-rule="evenodd" clip-rule="evenodd" d="M277.868 126H349.148L391.811 498H195L277.868 126Z" fill="black" fill-opacity="0.1"/>
</g>
</g>
<path id="Skin" fill-rule="evenodd" clip-rule="evenodd" d="M636.97 199.699C610.926 254.934 570.23 389.017 570.23 389.017L604.779 404.801C604.779 404.801 692.443 263.857 746.017 167.509C743.521 189.199 740.979 213.618 738.623 239.288C733.04 300.099 738.62 431.48 741.623 469.432C743.51 493.284 775.919 488.287 778.945 469.37C779.457 466.166 781.545 454.918 784.661 438.134C799.941 355.838 839.929 140.453 840 87.7152C840.028 66.4941 798.57 47.4304 773.86 62.2684C756.886 44.1576 724.763 33.7191 706.308 63.636C694.576 82.655 666.7 136.649 636.97 199.699Z" fill="#B28B67"/>
<path id="LegLower" fill-rule="evenodd" clip-rule="evenodd" d="M572.7 339.376L691.282 58.4619C719.69 12.7645 799.338 67.7609 789.651 94.2651C767.656 154.438 655.799 349.243 649.246 367.17L572.7 339.376Z" fill="#1F28CF"/>
<g id="Right Shoe">
<path id="shoe" fill-rule="evenodd" clip-rule="evenodd" d="M574.991 372.555C572.914 369.722 568.889 369.052 566.201 371.313C561.297 375.437 554.243 381.793 551.698 386.201C547.641 393.229 542.198 408.063 542.198 408.063C550.35 412.77 688.734 492.666 688.734 492.666C688.734 492.666 705.348 477.08 693.911 468.47C682.474 459.859 675.035 453.946 675.035 453.946L624.456 384.26C623.464 382.892 621.537 382.614 620.198 383.645L609.689 391.738C609.689 391.738 595.227 390.476 588.105 386.363C583.768 383.86 578.471 377.302 574.991 372.555Z" fill="#E4E4E4"/>
</g>
<g id="Right Shoe_2">
<path id="shoe_2" fill-rule="evenodd" clip-rule="evenodd" d="M742.349 450.852C739.134 449.438 735.313 450.87 734.115 454.172C731.931 460.195 729 469.226 729 474.317C729 482.432 731.704 498 731.704 498C741.117 498 900.909 498 900.909 498C900.909 498 907.505 476.195 893.294 474.457C879.084 472.718 869.685 471.317 869.685 471.317L791.04 436.257C789.496 435.568 787.689 436.291 787.045 437.853L781.99 450.116C781.99 450.116 768.835 456.254 760.61 456.254C755.603 456.254 747.737 453.223 742.349 450.852Z" fill="#E4E4E4"/>
</g>
<path id="Leg and Butt" fill-rule="evenodd" clip-rule="evenodd" d="M848.311 109.299C848.311 189 810.461 374.911 810.437 392.46L729 392.523C729 392.523 746.88 143.693 741.68 141.013C736.48 138.332 528.528 161.775 466.159 161.775C376.223 161.775 339.019 105.061 336 0H514.159C550.434 3.8816 739.646 42.0458 809.916 55.1652C840 60.7819 848.311 87.3435 848.311 109.299Z" fill="#2B44FF"/>
</g>
</svg>
