<svg width="912" height="717" viewBox="0 0 912 717" fill="none" xmlns="http://www.w3.org/2000/svg">
<g id="Bottom/Sitting/Wheelchair">
<path id="Skin" fill-rule="evenodd" clip-rule="evenodd" d="M738.623 224.015C733.04 285.038 738.62 416.207 741.623 454.045C743.51 477.825 775.919 471.599 778.945 452.567C779.457 449.344 781.545 438.016 784.661 421.115C799.941 338.239 839.929 121.337 840 68.5965C840.032 44.4127 786.191 25.0741 764.651 54.2871C746.942 41.8483 721.805 38.5132 706.308 63.6359C694.576 82.6549 666.7 136.649 636.97 199.699C610.926 254.934 570.23 389.016 570.23 389.016L604.779 404.801C604.779 404.801 690.123 267.586 743.859 171.382C742.075 187.936 740.302 205.66 738.623 224.015Z" fill="#B28B67"/>
<path id="Leg Back" fill-rule="evenodd" clip-rule="evenodd" d="M572.7 339.376L691.282 58.4619C719.69 12.7645 799.338 67.7609 789.651 94.2651C767.656 154.438 655.799 349.243 649.246 367.17L572.7 339.376Z" fill="#1F28CF"/>
<path id="Leg Front" fill-rule="evenodd" clip-rule="evenodd" d="M843 90.5296C843 170.153 808.099 357.318 808.075 374.851L723.528 372C723.528 372 745.697 127.907 742.226 126.253C737.019 123.772 528.786 155.073 466.334 157.437C376.278 160.845 339.023 105.596 336 0.751648L510.443 0.751648C510.443 0.751648 734.189 27.4597 804.554 37.9034C834.678 42.3745 843 68.5954 843 90.5296Z" fill="#2B44FF"/>
<g id="Left Shoe">
<path id="shoe" fill-rule="evenodd" clip-rule="evenodd" d="M574.433 378.966C571.655 376.815 567.602 377.281 565.641 380.195C562.064 385.511 557.035 393.565 555.804 398.504C553.841 406.378 552.698 422.138 552.698 422.138C561.832 424.415 716.877 463.072 716.877 463.072C716.877 463.072 728.552 443.511 715.184 438.386C701.817 433.262 693.036 429.628 693.036 429.628L625.209 376.583C623.877 375.542 621.949 375.806 620.946 377.166L613.074 387.842C613.074 387.842 598.825 390.615 590.845 388.625C585.986 387.414 579.087 382.57 574.433 378.966Z" fill="#E4E4E4"/>
</g>
<g id="Right Shoe">
<path id="shoe_2" fill-rule="evenodd" clip-rule="evenodd" d="M745.349 405.852C742.134 404.438 738.313 405.87 737.115 409.172C734.931 415.195 732 424.226 732 429.317C732 437.432 734.704 453 734.704 453C744.117 453 903.909 453 903.909 453C903.909 453 910.505 431.195 896.294 429.457C882.084 427.718 872.685 426.317 872.685 426.317L794.04 391.257C792.496 390.568 790.689 391.291 790.045 392.853L784.99 405.116C784.99 405.116 771.835 411.254 763.61 411.254C758.603 411.254 750.737 408.223 745.349 405.852Z" fill="#E4E4E4"/>
</g>
<rect id="Base" x="735" y="453" width="159" height="21" rx="3.5" fill="#2F3676"/>
<path id="Seat" d="M297 48C297 31.4315 310.431 18 327 18H648C664.569 18 678 31.4315 678 48V195H309C302.373 195 297 189.627 297 183V48Z" fill="#2F3676"/>
<path id="Wheel Stuff" fill-rule="evenodd" clip-rule="evenodd" d="M648 18H654.581C669.274 18 681.804 28.6411 684.185 43.1395L750 444H717.943" fill="#2F3676"/>
<path id="Front Wheel" fill-rule="evenodd" clip-rule="evenodd" d="M735 504C764.823 504 789 479.823 789 450C789 420.177 764.823 396 735 396C705.177 396 681 420.177 681 450C681 479.823 705.177 504 735 504Z" fill="#191847"/>
<g id="Wheel">
<path id="Wheel_2" fill-rule="evenodd" clip-rule="evenodd" d="M564 270C564 395.921 461.921 498 336 498C210.079 498 108 395.921 108 270C108 144.079 210.079 42 336 42C461.921 42 564 144.079 564 270ZM522 270C522 372.725 438.725 456 336 456C233.275 456 150 372.725 150 270C150 167.275 233.275 84 336 84C438.725 84 522 167.275 522 270Z" fill="#191847"/>
<rect id="Wheel Stuff_2" x="324" y="72" width="24" height="396" fill="#191847"/>
<rect id="Wheel Stuff_3" x="467.522" y="121.508" width="24" height="396" rx="2" transform="rotate(45 467.522 121.508)" fill="#191847"/>
<rect id="Wheel Stuff_4" x="534" y="258" width="24" height="396" rx="2" transform="rotate(90 534 258)" fill="#191847"/>
<rect id="Wheel Stuff_5" x="484.492" y="401.522" width="24" height="396" rx="2" transform="rotate(135 484.492 401.522)" fill="#191847"/>
</g>
</g>
</svg>
