<svg width="408" height="312" viewBox="0 0 408 312" fill="none" xmlns="http://www.w3.org/2000/svg">
<g id="Head/Front/Afro">
<path id="Hair Back" fill-rule="evenodd" clip-rule="evenodd" d="M183 233.121C217.287 233.121 229.757 192.072 249.236 169.546C263.173 153.429 286.96 158.235 294 135.671C311.705 78.9334 264.319 39 202.5 39C140.682 39 99.0003 74.0228 90.0003 126.671C81.0003 179.32 121.182 233.121 183 233.121Z" fill="#191847"/>
<g id="Head">
<path id="Head_2" fill-rule="evenodd" clip-rule="evenodd" d="M221.806 225.733C241.233 237.442 260.321 243.1 269.281 240.79C291.749 234.999 293.814 152.805 276.43 120.402C259.046 87.9984 169.675 73.8749 165.17 138.076C163.607 160.359 172.963 180.244 186.787 196.47L162 312H234L221.806 225.733Z" fill="#B28B67"/>
</g>
<path id="Hair" fill-rule="evenodd" clip-rule="evenodd" d="M169.85 93C114.701 147 170.061 204.395 185.23 204.395C186.209 196.604 189.195 189.025 193.572 181.812C191.247 178.801 189.87 175.057 189.87 171C189.87 161.059 198.139 153 208.34 153C211.526 153 214.523 153.786 217.139 155.17C239.249 136.314 266.98 123.168 280.749 120.584C304.698 116.088 225 39 169.85 93Z" fill="#191847"/>
</g>
</svg>
