<svg width="615" height="333" viewBox="0 0 615 333" fill="none" xmlns="http://www.w3.org/2000/svg">
<g id="Head/Front/Airy">
<g id="Head">
<path id="Head_2" fill-rule="evenodd" clip-rule="evenodd" d="M428.806 246.733C448.233 258.442 467.321 264.1 476.281 261.79C498.749 255.999 500.814 173.805 483.43 141.402C466.046 108.998 376.675 94.8749 372.17 159.076C370.607 181.359 379.963 201.244 393.787 217.47L369 333H441L428.806 246.733Z" fill="#B28B67"/>
</g>
<path id="hair" fill-rule="evenodd" clip-rule="evenodd" d="M442.392 104.056C432.902 102.5 407.352 101.43 402.64 101.43C399.629 101.43 396.365 102.118 394.582 99.3535C393.122 97.0893 393.657 93.2601 393.221 90.6326C392.715 87.5804 391.996 84.5675 391.269 81.5623C389.199 73.0107 386.07 64.8749 381.692 57.2364C373.478 42.9056 361.443 31.6803 346.25 25.1483C329.473 17.936 310.488 16.2845 292.441 17.7474C273.129 19.3126 255.648 25.6878 237.414 31.6872C220.038 37.4042 201.839 39.6545 183.666 36.8627C165.355 34.0501 151.52 24.1261 136.076 14.707C120.266 5.06403 102.197 -1.24279 83.5061 0.206995C66.0588 1.56078 49.9782 8.76482 35.551 18.3884C22.0527 27.3924 10.9148 38.2254 4.62665 53.472C-2.13801 69.8728 -2.13182 87.8753 8.99228 102.37C25.1162 123.38 55.0497 128.813 79.953 128.273C94.3575 127.961 108.505 125.332 122.104 120.548C140.241 114.169 155.914 103.357 172.881 94.5841C180.844 90.4675 189.075 87.0865 197.702 84.6511C206.074 82.2868 214.319 81.2024 221.899 86.2598C229.918 91.61 237.103 96.8655 246.277 100.215C255.077 103.428 264.398 105.225 273.774 105.153C292.016 105.012 309.998 99.3279 327.716 95.5207C342.163 92.4167 357.622 89.323 372.352 92.3069C378.498 93.5522 387.476 96.123 389.696 102.511C352.333 109.282 337.658 155.49 348.191 189.412C353.876 207.72 388.049 229.123 401.336 219.498C409.754 213.4 404.644 205.395 401.336 200.11C395.003 189.99 392.836 176.99 404.556 169.944C414.665 163.867 425.294 178.298 425.495 178.282C428.273 178.063 452.281 164.486 468.823 144.672C485.14 145.64 487.616 134.88 483.72 126.081C479.823 117.281 455.503 106.207 442.392 104.056Z" fill="#191847"/>
</g>
</svg>
