<svg width="408" height="312" viewBox="0 0 408 312" fill="none" xmlns="http://www.w3.org/2000/svg">
<g id="Head/Front/Caesar">
<g id="Head">
<path id="Head_2" fill-rule="evenodd" clip-rule="evenodd" d="M221.806 225.733C241.233 237.442 260.321 243.1 269.281 240.79C291.749 234.999 293.814 152.805 276.43 120.402C259.046 87.9984 169.675 73.8749 165.17 138.076C163.607 160.359 172.963 180.244 186.787 196.47L162 312H234L221.806 225.733Z" fill="#B28B67"/>
</g>
<path id="Combined Shape" fill-rule="evenodd" clip-rule="evenodd" d="M189 123C230.548 123.298 259.456 121.547 276 117C275.246 102.919 260.607 87 222 87C179.046 87 156 112.037 156 141C156 167.462 173.034 199.688 186 201C189.36 200.265 192.228 196.218 195.08 190.641C189.74 188.043 186 181.92 186 174C186 166.387 192.716 159 201 159C204.022 159 206.835 159.983 209.189 161.601C214.633 152.835 221.454 146.287 231 147L225 129L189 126V123Z" fill="#191847"/>
</g>
</svg>
