<svg width="408" height="312" viewBox="0 0 408 312" fill="none" xmlns="http://www.w3.org/2000/svg">
<g id="Head/Front/Chongo">
<g id="Head">
<path id="Head_2" fill-rule="evenodd" clip-rule="evenodd" d="M221.806 225.733C241.233 237.442 260.321 243.1 269.281 240.79C291.749 234.999 293.814 152.805 276.43 120.402C259.046 87.9984 169.675 73.8749 165.17 138.076C163.607 160.359 172.963 180.244 186.787 196.47L162 312H234L221.806 225.733Z" fill="#B28B67"/>
</g>
<path id="hair" fill-rule="evenodd" clip-rule="evenodd" d="M247.99 85.1099C238.152 82.1099 223.87 81.0925 217.862 81.7808C221.28 73.5925 222.636 64.4698 221.53 55.5873C220.456 46.9562 216.599 39.6071 213.032 31.9061C211.388 28.3565 209.525 24.8262 206.747 22.1111C203.917 19.345 200.335 17.5192 196.578 16.6481C192.734 15.7565 188.715 15.8307 184.865 16.6399C183.161 16.9978 181.633 17.7765 179.963 18.2094C178.253 18.6529 177.423 17.5823 176.181 16.5064C173.189 13.9139 168.803 12.6341 165.018 12.1761C160.771 11.6624 156.364 12.3031 152.314 13.6992C148.371 15.0583 144.584 17.2653 141.734 20.4804C140.465 21.9116 139.313 23.5406 138.564 25.3391C138.257 26.0772 138.206 26.5144 137.47 26.7848C136.788 27.0351 135.992 27.0424 135.289 27.2806C128.491 29.5828 122.679 34.835 119.515 41.5785C117.669 45.5127 116.794 52.4394 117.034 60.203C117.273 67.9667 124.283 88.2242 130.84 95.6132C136.692 102.209 145.295 106.561 153.597 108.466C148.086 114.765 144.418 122.635 141.706 130.64C138.759 139.335 136.936 148.37 136.262 157.575C135.623 166.321 135.564 175.571 137.614 184.13C139.532 192.135 143.634 198.701 150.482 202.867C153.619 204.775 156.993 206.209 160.388 207.519C163.733 208.81 167.088 210.066 170.593 210.79C177.225 212.161 184.866 211.925 189.975 206.647C191.816 204.744 193.841 202.353 195.184 200.028C195.667 199.192 195.958 198.645 195.371 197.828C194.668 196.849 193.531 196.099 192.628 195.334C187.479 190.968 184.291 185.14 183.487 178.215C182.672 171.188 184.56 162.118 191.392 159.051C199.825 155.265 209.112 159.611 216.608 163.661C219.794 152.418 226.335 142.294 236.59 137.137C247.935 131.432 260.954 130.764 272.613 125.868C275.651 124.593 278.746 123.145 280.983 120.545C281.917 119.459 283.014 118.05 283.387 116.613C283.878 114.726 282.66 113.144 281.72 111.672C276.735 103.871 257.828 88.1099 247.99 85.1099Z" fill="#191847"/>
</g>
</svg>
