<svg width="408" height="312" viewBox="0 0 408 312" fill="none" xmlns="http://www.w3.org/2000/svg">
<g id="Head/Front/Curly">
<g id="Head">
<path id="Head_2" fill-rule="evenodd" clip-rule="evenodd" d="M221.806 225.733C241.233 237.442 260.321 243.1 269.281 240.79C291.749 234.999 293.814 152.805 276.43 120.402C259.046 87.9984 169.675 73.8749 165.17 138.076C163.607 160.359 172.963 180.244 186.787 196.47L162 312H234L221.806 225.733Z" fill="#B28B67"/>
</g>
<path id="hair" fill-rule="evenodd" clip-rule="evenodd" d="M308.327 75.4813C306.836 70.2405 302.826 65.7533 297.421 64.422C296.111 64.0991 294.757 63.9687 293.409 64.0231C292.925 64.0424 292.789 64.1819 292.563 63.8436C292.395 63.5928 292.392 62.9801 292.323 62.6853C292.108 61.7688 291.839 60.8637 291.508 59.9821C290.377 56.975 288.477 54.3137 286.186 52.0719C281.901 47.8778 276.111 44.9833 270.095 44.4596C266.803 44.1731 263.535 44.708 260.422 45.779C258.811 46.3334 257.248 47.0238 255.727 47.787C255.268 48.0167 253.782 49.1419 253.322 49.069C252.814 48.9886 251.793 47.7265 251.38 47.4097C246.276 43.4936 239.973 41.954 233.616 42.001C226.44 42.054 219.53 42.4126 213.545 46.7871C212.278 47.7133 211.071 48.7274 209.922 49.795C209.317 50.3571 208.731 50.9402 208.173 51.5476C207.835 51.9141 207.507 52.2888 207.191 52.6736C206.655 53.3267 206.741 53.5412 205.99 53.0855C203.11 51.3357 199.772 50.5172 196.41 50.9304C194.414 51.1759 192.472 51.7752 190.627 52.564C190 52.8326 188.546 53.9038 187.877 53.9142C187.213 53.9244 185.78 52.9315 185.096 52.6791C181.402 51.3156 177.421 50.9794 173.539 51.6095C169.534 52.2597 165.6 53.8575 162.207 56.0654C160.575 57.1275 159.151 58.3043 158.007 59.8836C157.513 60.5654 157.067 61.2867 156.507 61.9189C156.18 62.2891 155.531 62.669 155.355 63.1375C155.46 62.8569 150.975 61.1279 150.552 61.0174C148.297 60.4285 146.001 60.5479 143.793 61.2745C139.642 62.6408 136.071 65.7048 133.137 68.8462C131.63 70.4598 130.311 72.2434 129.191 74.1436C128.655 75.0538 128.164 75.99 127.715 76.9461C127.497 77.4093 127.353 77.9887 127.067 78.406C126.697 78.9437 126.449 78.9539 125.78 79.1884C122.382 80.3787 119.285 82.3936 116.926 85.1162C114.54 87.8707 112.992 91.2627 112.343 94.8348C112.305 95.0452 112.282 95.9172 112.159 96.031C111.99 96.1879 111.307 96.1185 111.048 96.1489C110.153 96.2539 109.264 96.4101 108.387 96.6178C106.771 97.0004 105.197 97.5634 103.709 98.2999C97.9068 101.171 93.7576 106.552 91.727 112.608C89.5962 118.964 89.634 126.245 92.1806 132.482C92.592 133.489 93.0815 134.467 93.6564 135.392C94.0094 135.959 94.1233 135.961 93.8941 136.557C93.6386 137.219 93.1719 137.863 92.8685 138.511C91.8787 140.624 91.1867 142.866 90.7496 145.155C90.0325 148.91 89.6771 152.857 90.3845 156.641C90.713 158.398 91.2853 160.115 92.1585 161.68C92.6037 162.478 93.1246 163.235 93.7128 163.935C94.0181 164.298 94.3424 164.646 94.6816 164.978C94.8756 165.168 95.13 165.334 95.2949 165.546C95.6975 166.064 95.7822 165.638 95.5745 166.398C95.2842 167.46 94.626 168.508 94.223 169.542C93.8077 170.607 93.4323 171.686 93.089 172.777C92.3936 174.985 91.8057 177.232 91.438 179.519C90.732 183.908 90.856 188.586 92.9324 192.614C93.8201 194.338 95.0938 195.849 96.6385 197.025C97.3946 197.601 98.2135 198.097 99.0727 198.504C99.5141 198.713 100.078 198.803 100.279 199.23C100.496 199.689 100.174 200.601 100.101 201.114C99.4623 205.579 99.1421 210.267 100.469 214.642C101.692 218.672 104.383 222.23 107.877 224.586C114.656 229.156 123.794 228.898 130.917 225.24C132.773 224.286 134.51 223.102 136.06 221.705C140.006 227.017 148.125 226.849 153.892 225.335C161.076 223.45 166.841 218.454 170.163 211.89C174.704 217.419 184.236 215.625 187.385 209.627C188.156 208.159 188.614 206.541 188.839 204.904C188.957 204.043 188.882 203.175 188.971 202.321C189.084 201.232 189.811 200.175 190.229 199.122C191.043 197.073 191.548 194.956 191.57 192.746C191.581 191.592 191.435 190.468 191.325 189.323C191.226 188.293 191.512 187.333 191.675 186.316C189.832 186.619 187.587 186.122 185.851 185.588C184.148 185.064 182.552 183.683 181.35 182.422C178.558 179.493 176.852 175.654 175.686 171.834C173.125 163.448 174.175 153.387 182.609 148.785C186.539 146.641 198.31 146.648 202.99 147.707C207.911 148.821 213.489 159.679 213.764 160.7C213.934 161.331 213.848 162.113 214.428 162.534C215.704 163.459 217.807 161.853 218.747 161.061C220.37 159.693 221.528 157.873 222.531 156.028C224.715 152.009 226.477 147.699 227.721 143.299C228.68 139.907 229.293 136.409 230.547 133.103C231.795 129.814 233.761 126.873 236.819 125.01C240.145 122.983 243.958 121.915 247.609 120.641C251.229 119.379 254.786 117.836 257.592 115.157C258.209 114.568 258.808 113.942 259.304 113.249C259.696 112.701 260.084 111.653 260.681 111.306C261.61 110.766 262.965 112.17 263.768 112.68C267.729 115.196 271.034 118.705 273.699 122.538C276.35 126.35 278.525 130.018 280.292 134.275C281.603 137.433 282.422 141.476 284.727 144.063C285.757 145.219 293.409 145.918 295.887 144.909C298.365 143.9 301.143 141.281 301.975 139.64C302.826 137.96 303.03 136.114 302.666 134.275C302.452 133.193 302.015 132.183 301.776 131.12C301.575 130.227 301.392 129.383 300.957 128.566C300.134 127.016 298.727 125.902 297.03 125.436C298.796 123.808 300.259 121.861 301.271 119.684C302.323 117.422 303.215 114.671 303.468 112.189C303.673 110.173 303.356 108.084 302.252 106.351C301.094 104.533 299.043 103.348 297.268 102.214C299.979 100.093 302.3 97.5132 304.207 94.6573C307.917 89.1034 310.211 82.1026 308.327 75.4813Z" fill="#191847"/>
</g>
</svg>
