<svg width="408" height="312" viewBox="0 0 408 312" fill="none" xmlns="http://www.w3.org/2000/svg">
<g id="Head/Front/Hijab 1">
<g id="Head">
<path id="Head_2" fill-rule="evenodd" clip-rule="evenodd" d="M221.806 225.733C241.233 237.442 260.321 243.1 269.281 240.79C291.749 234.999 293.814 152.805 276.43 120.402C259.046 87.9984 169.675 73.8749 165.17 138.076C163.607 160.359 172.963 180.244 186.787 196.47L162 312H234L221.806 225.733Z" fill="#B28B67"/>
</g>
<g id="Hijab">
<path id="Front" fill-rule="evenodd" clip-rule="evenodd" d="M260.205 99.0344C258.556 98.0501 255.105 95.9739 253.357 95.2214C252.944 95.0403 250.047 92.9741 249.97 93.0002C247.777 93.74 241.427 96.4714 240.882 98.8316C240.797 99.0104 240.714 99.1782 240.634 99.3249C239.734 100.961 238.908 102.637 238.121 104.334C236.393 108.058 234.901 111.951 233.476 115.813C230.701 123.335 228.29 131.032 226.073 138.746C223.816 146.599 221.901 154.544 219.756 162.429C216.671 173.776 212.722 184.845 209.658 196.187C207.701 203.429 206.613 210.757 207.127 218.211C207.132 218.3 207.135 218.389 207.143 218.48C207.146 218.517 207.151 218.554 207.154 218.591C207.241 219.737 207.366 220.886 207.532 222.038C207.677 223.023 207.823 224.011 207.978 225C210.777 219.419 212.914 213.269 215.182 207.432C215.404 206.861 215.615 206.285 215.822 205.708C216.553 204.524 217.299 203.349 218.052 202.178C222.807 194.795 227.58 187.439 232.139 179.922C240.338 166.403 248.462 152.598 258.183 140.184C261.054 136.518 263.991 132.908 266.826 129.212C268.439 127.109 270.01 124.971 271.53 122.794C272.617 121.238 277.341 115.813 275.63 112.554C274.755 110.886 264.483 101.588 260.205 99.0344Z" fill="#2C2C2C"/>
<path id="Turban" fill-rule="evenodd" clip-rule="evenodd" d="M253.878 95.4936C255.482 96.0326 254.701 92.6952 253.148 91.5208C245.951 86.0799 218.438 84.1055 194.495 89.0758C178.455 92.4054 159.801 100.693 146.99 111.346C135.441 120.951 127.498 136.348 123.409 151.223C119.116 166.843 118.465 183.127 120.857 199.144C121.383 202.662 122.512 206.015 123.141 209.459C123.85 213.337 124.213 217.071 125.476 220.844C126.25 223.154 127.564 225.418 128.224 227.741C128.977 230.392 128.518 232.844 127.969 235.54C127.073 239.935 125.963 244.32 124.386 248.517C122.017 254.819 119.142 260.722 117.34 267.262C114.942 275.964 104.91 304.282 112.241 312H251.797C248.283 302.414 237.735 291.133 235.599 280.872C234.341 274.827 233.743 261.626 233.611 261.146C230.466 239.467 224.326 229.115 220.48 225.357C216.634 221.6 211.511 220.445 211.247 217.186C210.157 203.707 215.516 190.792 219.447 178.213C224.131 163.22 227.564 147.855 232.393 132.913C234.531 126.296 245.551 92.6952 253.878 95.4936Z" fill="#8991DC"/>
<path id="Shade" fill-rule="evenodd" clip-rule="evenodd" d="M199.685 159.426C198.554 136.611 199.685 127.698 204.948 111H201.703C196.573 117.627 192.281 137.896 197.104 159.426H199.685ZM136.091 158.351L136.091 158.351L136.091 158.35C135.525 156.965 134.946 155.547 134.346 154.093L132.283 155.084C138.792 178.892 146.709 197.271 173.896 212.678L176.01 211.197C150.299 193.118 144.785 179.627 136.091 158.351ZM174.64 129.877C174.913 131.942 175.173 133.953 175.428 135.917V135.917C179.335 166.078 181.814 185.205 203.599 219.893L201.131 220.648C177.249 188.478 173.464 162.222 172.336 130.062L174.64 129.877ZM151.121 227.641L149.008 230.209C159.588 232.423 166.782 240.204 175.029 249.125C183.754 258.563 193.658 269.276 210 276.02L213.034 274.182C195.197 264.908 186.9 255.691 179.655 247.644C172.154 239.312 165.781 232.233 151.121 227.641Z" fill="black" fill-opacity="0.2"/>
</g>
</g>
</svg>
