<svg width="408" height="402" viewBox="0 0 408 402" fill="none" xmlns="http://www.w3.org/2000/svg">
<g id="Head/Front/Hijab2">
<g id="Head">
<path id="Head_2" fill-rule="evenodd" clip-rule="evenodd" d="M221.806 225.733C241.233 237.442 260.321 243.1 269.281 240.79C291.749 234.999 293.814 152.805 276.43 120.402C259.046 87.9984 169.675 73.8749 165.17 138.076C163.607 160.359 172.963 180.244 186.787 196.47L162 312H234L221.806 225.733Z" fill="#B28B67"/>
</g>
<path id="Hijab" fill-rule="evenodd" clip-rule="evenodd" d="M266.896 109.329C268.5 109.868 266.896 102.968 263.06 100.444C251.298 92.7054 216.284 81.2518 192.341 86.2221C176.302 89.5517 156.298 97.9093 143.487 108.563C131.938 118.168 121.429 135.1 117.34 149.976C113.046 165.595 111.423 187.329 117.34 200.957C124.386 217.186 149.34 234.677 150 237C150.753 239.651 147.804 250.007 145.645 260.919C143.487 271.831 144.469 299.615 145.645 304.147C147.525 311.389 157.604 314.949 162 315.473C186.301 318.369 203.916 348.537 211.247 356.255C211.247 356.255 260.197 405.399 279.572 399C282.971 397.877 277.876 357.168 274.476 339.719C271.076 322.271 237.735 291.133 235.599 280.872C234.342 274.827 234.132 264.304 234 263.824C230.855 242.145 231.397 240.383 226.81 231.549C222.223 222.715 218.667 222.197 219.769 219.624C225.155 207.05 242.479 168.58 246.409 156C251.094 141.007 248.88 145.932 253.709 130.99C255.847 124.373 258.569 106.531 266.896 109.329Z" fill="#89C5CC"/>
<mask id="mask0" mask-type="alpha" maskUnits="userSpaceOnUse" x="113" y="85" width="168" height="315">
<path id="Hijab_2" fill-rule="evenodd" clip-rule="evenodd" d="M266.896 109.329C268.5 109.868 266.896 102.968 263.06 100.444C251.298 92.7054 216.284 81.2518 192.341 86.2221C176.302 89.5517 156.298 97.9093 143.487 108.563C131.938 118.168 121.429 135.1 117.34 149.976C113.046 165.595 111.423 187.329 117.34 200.957C124.386 217.186 149.34 234.677 150 237C150.753 239.651 147.804 250.007 145.645 260.919C143.487 271.831 144.469 299.615 145.645 304.147C147.525 311.389 157.604 314.949 162 315.473C186.301 318.369 203.916 348.537 211.247 356.255C211.247 356.255 260.197 405.399 279.572 399C282.971 397.877 277.876 357.168 274.476 339.719C271.076 322.271 237.735 291.133 235.599 280.872C234.342 274.827 234.132 264.304 234 263.824C230.855 242.145 231.397 240.383 226.81 231.549C222.223 222.715 218.667 222.197 219.769 219.624C225.155 207.05 242.479 168.58 246.409 156C251.094 141.007 248.88 145.932 253.709 130.99C255.847 124.373 258.569 106.531 266.896 109.329Z" fill="white"/>
</mask>
<g mask="url(#mask0)">
<path id="Shade" fill-rule="evenodd" clip-rule="evenodd" d="M199.685 159.426C198.554 136.611 199.685 127.698 204.948 111H201.703C196.573 117.627 192.281 137.896 197.104 159.426H199.685ZM136.091 158.351L136.091 158.351L136.091 158.35C135.525 156.965 134.946 155.547 134.346 154.093L132.283 155.084C138.792 178.892 146.709 197.271 173.896 212.678L176.01 211.197C150.299 193.118 144.785 179.627 136.091 158.351ZM174.64 129.877C174.913 131.942 175.173 133.953 175.428 135.917V135.917C179.335 166.078 181.814 185.205 203.599 219.893L201.131 220.648C177.249 188.478 173.464 162.222 172.336 130.062L174.64 129.877ZM151.121 227.641L149.008 230.209C159.588 232.423 166.782 240.204 175.029 249.125C183.754 258.563 193.658 269.276 210 276.02L213.034 274.182C195.197 264.908 186.9 255.691 179.655 247.644C172.154 239.312 165.781 232.233 151.121 227.641Z" fill="black" fill-opacity="0.2"/>
</g>
</g>
</svg>
