<svg width="408" height="312" viewBox="0 0 408 312" fill="none" xmlns="http://www.w3.org/2000/svg">
<g id="Head/Front/Long">
<path id="Hair Back" fill-rule="evenodd" clip-rule="evenodd" d="M217.5 81C181.878 81 153 109.878 153 145.5V208.5C153 241.697 178.08 269.037 210.326 272.605C210.334 272.759 210.343 272.913 210.352 273.067H297.352C311.103 259.631 297.627 173.977 287.286 135.871C282.637 104.816 255.85 81 223.5 81H217.5Z" fill="#191847"/>
<g id="Head">
<path id="Head_2" fill-rule="evenodd" clip-rule="evenodd" d="M221.806 225.733C241.233 237.442 260.321 243.1 269.281 240.79C291.749 234.999 293.814 152.805 276.43 120.402C259.046 87.9984 169.675 73.8749 165.17 138.076C163.607 160.359 172.963 180.244 186.787 196.47L162 312H234L221.806 225.733Z" fill="#B28B67"/>
</g>
<path id="Hair Front" fill-rule="evenodd" clip-rule="evenodd" d="M155.644 138.451C157.734 136.384 159.757 134.384 161.763 132.594L161.667 130.262C161.667 130.262 184.264 84 219.004 84C253.713 84 264.69 100.136 274.021 113.852L274.046 113.889C269.165 130.636 254.456 137.411 237.821 145.074C230.66 148.372 223.142 151.835 215.897 156.329C213.06 154.023 209.441 152.641 205.5 152.641C196.387 152.641 189 160.029 189 169.141C189 178.254 196.387 185.641 205.5 185.641C205.751 185.641 206.001 185.636 206.25 185.624C209.567 221.259 208.238 261.952 198.352 271.611H111.352C108.854 228.219 120.079 215.841 131.55 203.192C142.342 191.291 153.352 179.15 153.352 140.708C154.126 139.952 154.889 139.197 155.644 138.451L155.644 138.451Z" fill="#191847"/>
</g>
</svg>
