<svg width="408" height="312" viewBox="0 0 408 312" fill="none" xmlns="http://www.w3.org/2000/svg">
<g id="Head/Front/Pony">
<g id="Head">
<path id="Head_2" fill-rule="evenodd" clip-rule="evenodd" d="M221.806 225.733C241.233 237.442 260.321 243.1 269.281 240.79C291.749 234.999 293.814 152.805 276.43 120.402C259.046 87.9984 169.675 73.8749 165.17 138.076C163.607 160.359 172.963 180.244 186.787 196.47L162 312H234L221.806 225.733Z" fill="#B28B67"/>
</g>
<path id="hair" fill-rule="evenodd" clip-rule="evenodd" d="M285 90C285 106.023 272.438 119.113 256.625 119.957C247.579 122.748 235.957 124.797 223.069 125.661C224.32 130.367 225 135.713 225 141.755C225 147.089 224.411 152.747 223.327 158.491C220.532 155.168 216.794 153 213 153C202.387 153 195 161.73 195 171C195 182.765 201.792 191.275 211.706 191.956C202.778 209.094 190.43 222 178.093 222C154.661 222 138 190.672 138 156.989C138 155.805 138.023 154.63 138.07 153.463C130.137 158.906 122.787 166.041 115.384 173.228L115.384 173.228C99.6533 188.498 83.6837 204 61.3822 204C16.7617 204 -0.958989 114 61.3822 114C103.779 114 124.634 120.181 142.606 129.322C146.151 119.329 151.556 110.927 158.166 105.06C159.756 103.27 162.194 101.557 165.339 99.9696C167.261 98.9176 169.251 98.0609 171.296 97.4161C182.135 93.4329 197.835 90.6234 215.372 90.011C218.647 89.8966 221.863 89.8632 225 89.9053C225.051 73.3803 238.463 60 255 60C271.569 60 285 73.4315 285 90Z" fill="#191847"/>
</g>
</svg>
