<svg width="408" height="312" viewBox="0 0 408 312" fill="none" xmlns="http://www.w3.org/2000/svg">
<g id="Head/Front/Rad">
<g id="Head">
<path id="Head_2" fill-rule="evenodd" clip-rule="evenodd" d="M221.806 225.733C241.233 237.442 260.321 243.1 269.281 240.79C291.749 234.999 293.814 152.805 276.43 120.402C259.046 87.9984 169.675 73.8749 165.17 138.076C163.607 160.359 172.963 180.244 186.787 196.47L162 312H234L221.806 225.733Z" fill="#B28B67"/>
</g>
<path id="hair" fill-rule="evenodd" clip-rule="evenodd" d="M133.78 116.705C131.455 114.401 130.186 111.111 129.089 107.988C127.949 104.743 126.842 101.465 126.085 98.0881C124.574 91.3404 124.559 83.5805 129.373 78.3409C133.233 74.1393 139.026 72.2547 144.372 71.8452C147.934 71.572 151.592 72.0708 155.006 73.1933C158.394 74.3067 161.314 76.5259 164.598 77.9033C164.723 70.6317 165.969 63.0231 169.658 56.8142C173.208 50.8403 178.867 47.488 185.313 46.6011C191.929 45.6909 198.462 47.239 204.384 50.4418C205.867 51.2439 207.336 52.0842 208.742 53.0353C209.919 53.8318 211.143 54.7909 212.524 55.1148C214.064 55.4763 214.827 54.587 215.827 53.4637C217.001 52.1466 218.322 50.9866 219.721 49.9582C225.907 45.4118 234.022 43.5425 241.188 46.2676C244.489 47.5232 247.7 49.6555 249.94 52.5938C251.936 55.213 253.361 59.3677 256.116 61.1926C257.286 61.9672 258.112 60.9409 259.176 60.1824C260.776 59.0427 262.301 57.785 263.92 56.6763C266.193 55.1187 268.655 53.9535 271.291 53.3437C275.15 52.4508 280.483 52.6601 281.587 57.7146C282.001 59.6131 281.683 61.6436 281.55 63.5565C281.366 66.1832 281.174 68.8089 280.946 71.4317C280.773 73.4231 280.554 75.3465 280.178 77.3021C279.978 78.3445 279.35 80.2878 279.798 81.3317C280.356 82.6366 282.934 81.8947 284.036 81.9401C286.211 82.03 288.396 82.4115 290.408 83.3411C291.967 84.0617 293.606 85.1214 294.264 86.9083C294.668 88.006 294.562 89.1335 294.371 90.2628C294.141 91.618 294.404 92.3369 294.575 93.7044C297.497 92.2655 307.622 89.0687 308.896 94.3053C309.32 96.0489 308.354 98.0191 307.618 99.4896C306.325 102.069 304.63 104.426 302.898 106.674C299.284 111.364 294.97 115.41 290.328 118.869C295.767 121.287 297.186 128.418 292.478 132.667C290.399 134.543 287.604 134.96 284.981 134.84C284.021 134.796 282.638 134.427 281.883 134.595C281.476 134.684 281.041 135.029 280.478 135.067C276.777 135.321 272.599 134.429 268.981 133.608C262.535 132.145 256.432 129.091 251.448 124.439C250.17 123.246 249.114 122.559 247.393 122.577C245.885 122.592 244.405 123.005 242.899 123.044C238.913 123.145 235.319 121.197 231.617 119.9C231.39 124.9 229.966 130.407 227.921 134.906C226.253 138.574 222.77 139.108 219.347 139.429C208.401 140.459 197.417 139.31 186.457 139.325C197.066 141.723 208.029 142.712 218.544 145.533C223.297 146.809 219.667 150.012 217.635 152.233C214.289 155.89 211.801 160.421 210.075 165.194C204.885 158.429 195.712 153.971 187.585 156.05C178.605 158.346 172.282 170.489 178.024 179.219C181.358 184.287 187.378 186.243 192.387 188.421C188.48 192.484 187.534 198.484 185.182 203.539C184.022 206.031 182.394 208.85 179.8 209.718C178.84 210.04 177.715 210.067 176.957 210.85C176.019 211.818 175.796 212.901 174.598 213.734C169.818 217.057 162.352 216.801 158.116 212.464C154.284 208.542 155.281 202.336 158.481 198.36C153.388 196.237 144.108 193.506 146.132 185.571C135.096 184.838 108.299 166.939 123.112 153.859C114.982 149.264 107.514 138.036 112.735 128.138C116.756 120.516 126.108 117.109 133.78 116.705Z" fill="#191847"/>
</g>
</svg>
