<svg width="408" height="312" viewBox="0 0 408 312" fill="none" xmlns="http://www.w3.org/2000/svg">
<g id="Head/Front/Short 1">
<g id="Head">
<path id="Head_2" fill-rule="evenodd" clip-rule="evenodd" d="M221.806 225.733C241.233 237.442 260.321 243.1 269.281 240.79C291.749 234.999 293.814 152.805 276.43 120.402C259.046 87.9984 169.675 73.8749 165.17 138.076C163.607 160.359 172.963 180.244 186.787 196.47L162 312H234L221.806 225.733Z" fill="#B28B67"/>
</g>
<path id="Hair" fill-rule="evenodd" clip-rule="evenodd" d="M296.875 83.4147C294.984 84.6193 291.877 85.2104 287.555 85.272C283.289 85.3328 278.105 84.8805 272.256 84.2251C269.844 83.9548 267.322 83.6502 264.714 83.3353L264.714 83.3352C254.746 82.1314 243.529 80.7765 232.401 80.6093C218.359 80.3983 204.219 82.066 192.637 88.444C180.973 94.8675 172.066 105.978 168.38 124.264L168.222 125.046L168.537 125.364C152.529 157.879 167.011 190.696 186.241 202.233C191.59 195.896 196.258 189.755 200.423 183.876C197.077 180.608 195 176.046 195 171C195 161.059 203.059 153 213 153C215.323 153 217.543 153.44 219.582 154.241C227.326 141.813 233.857 132.117 242.528 126.407C265.138 128.667 280.215 125.066 289.258 117.502C298.803 109.516 301.238 97.4557 299.162 84.4437L298.802 82.1877L296.875 83.4147ZM247.265 123.796C266.987 125.138 279.748 121.546 287.333 115.201C295.313 108.524 297.899 98.4999 296.485 86.9371C294.054 87.8665 290.997 88.2233 287.597 88.2717C283.127 88.3354 277.78 87.8628 271.922 87.2065C269.46 86.9306 266.903 86.622 264.273 86.3044C254.319 85.1028 243.309 83.7736 232.356 83.609C218.509 83.4009 204.991 85.0661 194.084 91.0719C185.006 96.0709 177.625 104.14 173.399 116.937C175.085 114.401 176.973 111.879 179.075 109.38C210.275 72.2987 263.061 85.1412 263.061 120.671C256.938 120.671 251.793 121.758 247.265 123.796Z" fill="#191847"/>
</g>
</svg>
