<svg width="408" height="312" viewBox="0 0 408 312" fill="none" xmlns="http://www.w3.org/2000/svg">
<g id="Head/Front/Short Beard">
<g id="Head">
<path id="Head_2" fill-rule="evenodd" clip-rule="evenodd" d="M221.806 225.733C241.233 237.442 260.321 243.1 269.281 240.79C291.749 234.999 293.814 152.805 276.43 120.402C259.046 87.9984 169.675 73.8749 165.17 138.076C163.607 160.359 172.963 180.244 186.787 196.47L162 312H234L221.806 225.733Z" fill="#B28B67"/>
</g>
<path id="Hair" fill-rule="evenodd" clip-rule="evenodd" d="M225.406 145.166C231.634 135.893 237.613 128.82 245.391 124.713C277.044 125.213 280.75 119.538 280.75 100.412C275.637 96.7542 257.598 90.5941 237.396 88.8614C227.091 85.9122 214.882 86.4669 203.122 91.3863C188.604 95.5054 176.312 104.376 170.882 120.984C151.236 154.887 166.147 190.178 186.241 202.233C191.59 195.896 196.258 189.755 200.423 183.876C197.077 180.608 195 176.046 195 171C195 161.059 203.059 153 213 153C213.731 153 214.452 153.043 215.16 153.128C215.607 165.557 217.448 207.608 222.283 222.214C227.984 239.434 261.251 243.663 272.854 243.663C282.875 243.663 282.534 234.173 282.289 227.372C282.254 226.393 282.22 225.469 282.22 224.637C282.22 222.9 279.961 222.904 277.407 222.91C274.092 222.916 270.282 222.924 270.282 219.12C270.282 214.973 276.012 211.793 281.139 208.947C284.338 207.171 287.303 205.526 288.495 203.857C292.256 198.593 293.523 191.493 287.849 191.493C284.748 191.493 280.493 193.281 275.373 195.432C267.645 198.679 257.948 202.754 247.277 202.754C229.65 202.754 225.458 145.878 225.406 145.166Z" fill="#191847"/>
</g>
</svg>
