<svg width="408" height="312" viewBox="0 0 408 312" fill="none" xmlns="http://www.w3.org/2000/svg">
<g id="Head/Front/Short 2">
<g id="Head">
<path id="Head_2" fill-rule="evenodd" clip-rule="evenodd" d="M221.806 225.733C241.233 237.442 260.321 243.1 269.281 240.79C291.749 234.999 293.814 152.805 276.43 120.402C259.046 87.9984 169.675 73.8749 165.17 138.076C163.607 160.359 172.963 180.244 186.787 196.47L162 312H234L221.806 225.733Z" fill="#B28B67"/>
</g>
<path id="Hair" fill-rule="evenodd" clip-rule="evenodd" d="M181.254 210.923C172.218 170.719 146.474 143.314 150.405 125.345C154.337 107.376 171.364 102.996 171.364 102.996C171.364 102.996 180.17 67.3716 228.167 72.6911C276.164 78.0107 305.458 97.9433 292.807 141.804C281.178 141.804 267.139 137.598 247.727 144.804C238.487 148.233 234.51 166.074 234.51 166.074H225.737C225.737 166.074 212.966 144.902 200.552 150.514C188.139 156.125 194.909 177.776 194.909 177.776L190.587 210.923H181.254Z" fill="#191847"/>
</g>
</svg>
