<svg width="408" height="312" viewBox="0 0 408 312" fill="none" xmlns="http://www.w3.org/2000/svg">
<g id="Head/Front/Top">
<g id="Head">
<path id="Head_2" fill-rule="evenodd" clip-rule="evenodd" d="M221.806 225.733C241.233 237.442 260.321 243.1 269.281 240.79C291.749 234.999 293.814 152.805 276.43 120.402C259.046 87.9984 169.675 73.8749 165.17 138.076C163.607 160.359 172.963 180.244 186.787 196.47L162 312H234L221.806 225.733Z" fill="#B28B67"/>
</g>
<path id="Hair" fill-rule="evenodd" clip-rule="evenodd" d="M160.964 137.729C159.334 137.908 157.678 138 156 138C131.147 138 111 117.853 111 93C111 68.1472 131.147 48 156 48C180.639 48 200.653 67.802 200.996 92.3597C237.165 79.8292 284.103 94.4721 277.821 123.842C273.967 141.863 253.852 151.265 233.323 160.861C232.368 161.308 231.412 161.754 230.457 162.202C227.294 156.711 221.262 153 214.34 153C204.139 153 195.87 161.059 195.87 171C195.87 174.581 196.943 177.917 198.793 180.721C191.564 187.009 186.463 194.579 185.23 204.395C173.578 204.395 154.747 170.186 160.964 137.729Z" fill="#191847"/>
</g>
</svg>
