<svg width="408" height="312" viewBox="0 0 408 312" fill="none" xmlns="http://www.w3.org/2000/svg">
<g id="Head/Front/Turban2">
<g id="Head">
<path id="Head_2" fill-rule="evenodd" clip-rule="evenodd" d="M221.806 225.733C241.233 237.442 260.321 243.1 269.281 240.79C291.749 234.999 293.814 152.805 276.43 120.402C259.046 87.9984 169.675 73.8749 165.17 138.076C163.607 160.359 172.963 180.244 186.787 196.47L162 312H234L221.806 225.733Z" fill="#B28B67"/>
</g>
<g id="Turban">
<path id="Path" fill-rule="evenodd" clip-rule="evenodd" d="M274.253 102.153C275.55 98.4157 284.389 86.8376 268.646 75.8072C265.817 73.825 261.144 75.8007 257.095 74.5496C254.048 73.6082 253.021 69.3577 249.528 68.6162C245.905 67.8469 241.958 71.3335 237.863 71.0271C235.354 70.8394 231.482 66.9291 228.87 66.7185C224.207 66.3425 219.971 70.744 215.417 71.0271C212.777 71.1912 209.714 66.9432 207.093 66.7185C200.716 66.1715 194.907 69.1447 189.288 70.0463C184.108 70.8773 181.7 81.4917 177.884 84.0003C165.912 91.8723 156.531 94.0734 146.816 102.153C135.267 111.757 133.057 118.903 128.272 125.303C123.488 131.703 120.532 154.252 123.323 168.703C124.968 177.228 129.258 200.509 138.839 209.522C151.954 221.859 178.634 225.514 181.003 223.868C191.972 216.245 216.561 174.081 234 159.179C246.824 148.221 266.218 125.303 274.253 102.153Z" fill="#FF9B21"/>
<mask id="mask0" mask-type="alpha" maskUnits="userSpaceOnUse" x="122" y="66" width="156" height="159">
<path id="Path_2" fill-rule="evenodd" clip-rule="evenodd" d="M274.253 102.153C275.55 98.4157 284.389 86.8376 268.646 75.8072C265.817 73.825 261.144 75.8007 257.095 74.5496C254.048 73.6082 253.021 69.3577 249.528 68.6162C245.905 67.8469 241.958 71.3335 237.863 71.0271C235.354 70.8394 231.482 66.9291 228.87 66.7185C224.207 66.3425 219.971 70.744 215.417 71.0271C212.777 71.1912 209.714 66.9432 207.093 66.7185C200.716 66.1715 194.907 69.1447 189.288 70.0463C184.108 70.8773 181.7 81.4917 177.884 84.0003C165.912 91.8723 156.531 94.0734 146.816 102.153C135.267 111.757 133.057 118.903 128.272 125.303C123.488 131.703 120.532 154.252 123.323 168.703C124.968 177.228 129.258 200.509 138.839 209.522C151.954 221.859 178.634 225.514 181.003 223.868C191.972 216.245 216.561 174.081 234 159.179C246.824 148.221 266.218 125.303 274.253 102.153Z" fill="white"/>
</mask>
<g mask="url(#mask0)">
<path id="Shade" fill-rule="evenodd" clip-rule="evenodd" d="M199.604 148.939C207.683 124.141 222.36 62.2229 222.36 62.2229L213.493 63.1549C213.493 63.1549 206.472 102.662 199.254 128.255C192.654 151.653 185.066 174.594 179.1 192.631C170.858 217.551 165.711 233.11 170.546 227.581C171.124 226.919 171.703 226.148 172.284 225.269C172.339 225.387 172.422 225.455 172.536 225.473C172.194 226.149 172.668 225.844 174.089 224.528L174.101 224.516C182.365 216.854 206.008 189.857 230.768 145.112C242.162 124.521 263.061 72.3537 263.061 72.3537L254.762 68.8037C254.762 68.8037 240.959 110.02 230.768 130.006C212.849 165.148 196.041 191.28 185.112 207.301C189.641 198.262 194.973 186.149 201.623 171.04C204.552 164.386 207.736 157.152 211.22 149.343C221.847 125.525 242.916 65.4802 242.916 65.4802H234C234 65.4802 222.888 104.037 213.034 128.735C204.025 151.315 194.08 173.337 186.262 190.652L186.262 190.652C186.129 190.945 185.998 191.236 185.867 191.526C187.838 185.541 189.973 178.871 192.328 171.52C194.545 164.597 196.955 157.07 199.604 148.939Z" fill="black" fill-opacity="0.2"/>
</g>
</g>
</g>
</svg>
