<svg width="408" height="312" viewBox="0 0 408 312" fill="none" xmlns="http://www.w3.org/2000/svg">
<g id="Head/Front/Turban 1">
<g id="Head">
<path id="Head_2" fill-rule="evenodd" clip-rule="evenodd" d="M221.806 225.733C241.233 237.442 260.321 243.1 269.281 240.79C291.749 234.999 293.814 152.805 276.43 120.402C259.046 87.9984 169.675 73.8749 165.17 138.076C163.607 160.359 172.963 180.244 186.787 196.47L162 312H234L221.806 225.733Z" fill="#B28B67"/>
</g>
<g id="Turban">
<path id="Turban_2" fill-rule="evenodd" clip-rule="evenodd" d="M271.729 107.837C271.098 103.921 272.347 102 256.604 90.9694C240.862 79.939 215.445 66.9295 189.845 72.5913C156.623 79.939 143.427 101.853 130.616 112.507C119.067 122.112 107.479 123.232 100.612 135.149C93.7449 147.067 90.0912 181.354 96.0626 194.985C104.3 213.788 120.544 218.852 132.402 224.27C152.739 233.56 181.484 223.748 182.18 222.123C187.567 209.549 216.561 174.08 234 159.179C246.824 148.221 274.689 126.213 271.729 107.837Z" fill="#5C63AB"/>
<mask id="mask0" mask-type="alpha" maskUnits="userSpaceOnUse" x="93" y="71" width="179" height="158">
<path id="Turban_3" fill-rule="evenodd" clip-rule="evenodd" d="M271.729 107.837C271.098 103.921 272.347 102 256.604 90.9694C240.862 79.939 215.445 66.9295 189.845 72.5913C156.623 79.939 143.427 101.853 130.616 112.507C119.067 122.112 107.479 123.232 100.612 135.149C93.7449 147.067 90.0912 181.354 96.0626 194.985C104.3 213.788 120.544 218.852 132.402 224.27C152.739 233.56 181.484 223.748 182.18 222.123C187.567 209.549 216.561 174.08 234 159.179C246.824 148.221 274.689 126.213 271.729 107.837Z" fill="white"/>
</mask>
<g mask="url(#mask0)">
<path id="SHade" fill-rule="evenodd" clip-rule="evenodd" d="M172.901 198.669C138.471 156.209 130.371 105 130.371 105L120 111.56C120 111.56 132.755 167.52 172.901 198.669ZM186 222C130.283 173.043 116.995 118.026 116.995 118.026L105 121.563C105 121.563 121.53 183.085 186 222Z" fill="black" fill-opacity="0.2"/>
</g>
</g>
</g>
</svg>
