<svg width="408" height="312" viewBox="0 0 408 312" fill="none" xmlns="http://www.w3.org/2000/svg">
<g id="Head/Front/Wavy">
<g id="Head">
<path id="Head_2" fill-rule="evenodd" clip-rule="evenodd" d="M221.806 225.733C241.233 237.442 260.321 243.1 269.281 240.79C291.749 234.999 293.814 152.805 276.43 120.402C259.046 87.9984 169.675 73.8749 165.17 138.076C163.607 160.359 172.963 180.244 186.787 196.47L162 312H234L221.806 225.733Z" fill="#B28B67"/>
</g>
<path id="hair" fill-rule="evenodd" clip-rule="evenodd" d="M283.227 134.951C282.514 130.751 280.771 126.087 279.365 122.113C277.551 116.99 274.808 112.371 271.788 108.018C266.103 99.8231 259.283 92.4225 251.753 86.2802C237.998 75.0607 220.49 68.5893 203.272 70.6909C194.579 71.7519 186.14 75.0679 178.958 80.5871C172.468 85.5738 166.226 92.9146 157.823 93.4421C148.68 94.0155 140.299 85.9454 132.966 80.9612C124.698 75.3423 115.903 71.248 106.24 69.6564C90.0519 66.9911 74.8447 72.4603 63.6883 85.7415C51.8165 99.8747 43.1865 120.601 50.9828 139.327C52.432 142.808 54.2964 145.743 56.972 148.175C59.4259 150.406 63.1736 152.779 64.1686 156.343C65.2254 160.131 62.0685 165.018 60.8444 168.436C59.0907 173.333 57.6508 178.474 58.1627 183.797C59.0037 192.539 64.4973 200.884 70.2982 206.629C76.2013 212.476 83.4667 215.829 91.2268 217.375C96.4083 218.406 101.704 218.976 106.97 218.588C109.584 218.396 111.891 217.67 114.424 217.092C116.887 216.531 118.264 217.185 120.354 218.536C130.062 224.812 140.5 227.24 151.71 226.307C161.171 225.519 172.075 223.226 179.793 216.744C188.364 209.545 188.193 199.617 186.177 189.011C188.313 190.07 194.225 190.725 190.692 186.504C189.293 184.832 186.649 184.152 184.853 183.169C182.763 182.024 180.64 180.544 179.016 178.677C172.461 171.136 179.082 155.79 187.321 153.261C199.563 149.504 202.303 166.816 211.042 171.295C216.067 173.869 221.323 170.35 225.087 166.757C230.13 161.943 233.566 155.565 236.533 149.075C238.978 143.731 241.252 138.311 243.743 132.993C244.906 130.51 248.933 123.49 246.911 120.682C255.679 118.933 265.445 122.577 272.996 127.355C276.117 129.33 278.497 131.508 280.162 134.995C280.518 135.743 281.295 137.964 282.27 138.055C284.085 138.224 283.406 136.006 283.227 134.951Z" fill="#191847"/>
</g>
</svg>
