<svg width="972" height="717" viewBox="0 0 972 717" fill="none" xmlns="http://www.w3.org/2000/svg">
<g id="Bottom/Sitting/Sweat Pants">
<g id="Seat">
<path id="Ballsy Ball" fill-rule="evenodd" clip-rule="evenodd" d="M378 522C505.578 522 609 423.279 609 301.5C609 179.721 505.578 81 378 81C250.422 81 147 179.721 147 301.5C147 423.279 250.422 522 378 522Z" fill="#C5CFD6"/>
</g>
<path id="Skin" fill-rule="evenodd" clip-rule="evenodd" d="M737.133 289.74C748.291 328.825 776.09 402.905 814.528 487.98L851.054 477.322C819.099 281.558 792.504 151.952 777.271 112.506C767.206 86.443 691.06 89.4967 699.82 141.938C703.494 163.93 718.028 222.818 737.133 289.74ZM587.002 151.084C527.436 163.425 403.932 207.051 368.665 220.991C346.501 229.752 360.789 259.464 379.698 256.865C382.9 256.424 394.229 255.157 411.132 253.266C465.425 247.192 577.235 234.683 662.036 222.479C706.688 216.052 682.668 132.414 636.306 141.265C620.709 144.243 604.119 147.537 587.002 151.084Z" fill="#B28B67"/>
<path id="Leg Back" fill-rule="evenodd" clip-rule="evenodd" d="M779.606 90.4135C773.516 70.5408 496.687 0 496.687 0H474V21.1402L664.761 118.249C664.508 121.382 664.663 124.694 665.278 128.187C663.901 200.177 694.712 253.958 725.217 307.205C745.166 342.025 764.983 376.617 775.583 415.924L845.668 405.468C843.627 400.247 840.398 376.704 835.984 344.516C824.855 263.355 806.188 127.226 780 91.2096C779.909 91.0839 779.816 90.959 779.721 90.8348C779.687 90.6942 779.649 90.5537 779.606 90.4135Z" fill="#1F28CF"/>
<path id="Leg Front" fill-rule="evenodd" clip-rule="evenodd" d="M489.85 175.921C472.395 172.427 456.322 169.309 442.568 166.897C353.728 151.314 327.821 103.759 343.139 0H506.825C533.564 7.68095 672.522 65.9545 744.62 96.949C792.338 117.463 777.296 191.413 750.273 210.658C750.126 211.839 749.64 212.641 748.774 213C646.321 255.463 558.954 252.295 502.851 250.26C479.353 249.408 461.34 248.755 450 251.736L432.231 195.685L489.85 175.921Z" fill="#2B44FF"/>
<g id="Right Shoe">
<path id="shoe" fill-rule="evenodd" clip-rule="evenodd" d="M387.382 218.084C387.244 214.574 384.282 211.768 380.789 212.139C374.418 212.816 365.016 214.141 360.441 216.373C353.147 219.93 340.34 229.185 340.34 229.185C344.466 237.646 414.514 381.265 414.514 381.265C414.514 381.265 437.004 377.635 432.337 364.101C427.67 350.566 424.809 341.504 424.809 341.504L421.846 255.449C421.787 253.76 420.346 252.452 418.659 252.558L405.421 253.39C405.421 253.39 394.138 244.257 390.533 236.865C388.338 232.365 387.613 223.966 387.382 218.084Z" fill="#E4E4E4"/>
</g>
<g id="Right Shoe_2">
<path id="shoe_2" fill-rule="evenodd" clip-rule="evenodd" d="M805.349 468.852C802.134 467.438 798.313 468.87 797.115 472.172C794.931 478.195 792 487.226 792 492.317C792 500.432 794.704 516 794.704 516C804.117 516 963.909 516 963.909 516C963.909 516 970.505 494.195 956.294 492.457C942.084 490.718 932.685 489.317 932.685 489.317L854.04 454.257C852.496 453.568 850.689 454.291 850.045 455.853L844.99 468.116C844.99 468.116 831.835 474.254 823.61 474.254C818.603 474.254 810.737 471.223 805.349 468.852Z" fill="#E4E4E4"/>
</g>
</g>
</svg>
