<svg width="900" height="717" viewBox="0 0 900 717" fill="none" xmlns="http://www.w3.org/2000/svg">
<g id="Bottom/Standing/Baggy Pants">
<path id="Leg" fill-rule="evenodd" clip-rule="evenodd" d="M402 0L549.245 372.681L648.003 687.751H687L536.021 0L402 0Z" fill="#997659"/>
<path id="Leg_2" fill-rule="evenodd" clip-rule="evenodd" d="M372.35 0C370.782 130.963 347.916 307.282 344.262 315.446C340.609 323.609 92.0277 523.073 92.0277 523.073L118.887 551.816C118.887 551.816 412.19 380.801 425.763 357.992C439.336 335.183 483.523 125.289 519 0H372.35Z" fill="#B28B67"/>
<g id="Left Shoe">
<path id="shoe" fill-rule="evenodd" clip-rule="evenodd" d="M96.348 517.692C95.3652 514.32 91.8121 512.314 88.5127 513.519C82.4943 515.717 73.6924 519.277 69.7926 522.549C63.5763 527.765 53.3883 539.843 53.3883 539.843C59.4393 547.055 162.151 669.462 162.151 669.462C162.151 669.462 183.094 660.499 175.292 648.496C167.49 636.493 162.521 628.392 162.521 628.392L138.827 545.61C138.362 543.985 136.647 543.065 135.036 543.576L122.393 547.586C122.393 547.586 109.235 541.454 103.948 535.153C100.73 531.318 97.9951 523.344 96.348 517.692Z" fill="#E4E4E4"/>
</g>
<g id="Right Shoe">
<path id="shoe_2" fill-rule="evenodd" clip-rule="evenodd" d="M640.349 669.852C637.134 668.438 633.313 669.87 632.115 673.172C629.931 679.195 627 688.226 627 693.317C627 701.432 629.704 717 629.704 717C639.117 717 798.909 717 798.909 717C798.909 717 805.505 695.195 791.294 693.457C777.084 691.718 767.685 690.317 767.685 690.317L689.04 655.257C687.496 654.568 685.689 655.291 685.045 656.853L679.99 669.116C679.99 669.116 666.835 675.254 658.61 675.254C653.603 675.254 645.737 672.223 640.349 669.852Z" fill="#E4E4E4"/>
</g>
<path id="Pant" fill-rule="evenodd" clip-rule="evenodd" d="M501 655.299L686.413 635.176L549 0H382.932L501 655.299Z" fill="#69A1AC"/>
<path id="Pant_2" fill-rule="evenodd" clip-rule="evenodd" d="M130.38 476.701L252 620.658C252 620.658 444.15 410.796 476.048 346.788C507.946 282.78 533.397 0 533.397 0H346.434C346.434 0 332.532 248.777 327.692 260.354C322.851 271.931 130.38 476.701 130.38 476.701Z" fill="#89C5CC"/>
</g>
</svg>
