<svg width="903" height="732" viewBox="0 0 903 732" fill="none" xmlns="http://www.w3.org/2000/svg">
<g id="Bottom/Standing/Skirt">
<path id="Skirt Shadow" fill-rule="evenodd" clip-rule="evenodd" d="M295.224 309.264C295.224 309.264 403.176 339.459 481.499 339.459C559.823 339.459 627 292.96 627 292.96C627 292.96 521.359 261.968 453 261.968C384.641 261.968 295.224 309.264 295.224 309.264Z" fill="#1F28CF"/>
<path id="Leg" fill-rule="evenodd" clip-rule="evenodd" d="M543.801 368.473C543.107 367.43 542.521 366.295 542.056 365.066C532.436 339.625 378.351 65.1766 363 15H536.478C548.15 53.15 600.681 292.559 608.074 340.325C631.4 415.67 679.426 659.686 685.557 676.59C692.006 694.374 655.717 712.9 646.046 691.037C630.659 656.25 593.996 559.995 577.671 501.223C562.367 446.124 549.905 396.554 543.801 368.473Z" fill="#997659"/>
<path id="Leg_2" fill-rule="evenodd" clip-rule="evenodd" d="M401.871 401.981C331.426 419.785 73.752 451.973 56.0693 457.022C37.8793 462.215 21.9301 424.721 44.4139 416.6C80.1895 403.677 178.767 373.817 238.535 361.632C286.609 351.831 330.477 343.834 359.929 339.15C357.434 256.42 346.028 57.8806 353.504 15H507C499.831 56.1196 439.23 356.153 427.967 386.186C424.392 396.907 413.727 401.646 401.871 401.981Z" fill="#B28B67"/>
<g id="Left Shoe">
<path id="shoe" fill-rule="evenodd" clip-rule="evenodd" d="M50.793 414.222C51.628 410.81 49.5542 407.296 46.0941 406.69C39.7829 405.585 30.3804 404.267 25.3668 405.151C17.3753 406.56 2.51316 411.926 2.51316 411.926C4.14783 421.197 31.8954 578.561 31.8954 578.561C31.8954 578.561 54.5141 581.27 53.7587 566.974C53.0034 552.677 52.751 543.178 52.751 543.178L73.6221 459.639C74.0318 458 73.0067 456.345 71.356 455.982L58.4017 453.133C58.4017 453.133 50.0728 441.244 48.6446 433.144C47.7751 428.213 49.3936 419.94 50.793 414.222Z" fill="#E4E4E4"/>
</g>
<g id="Right Shoe">
<path id="shoe_2" fill-rule="evenodd" clip-rule="evenodd" d="M643.349 684.852C640.134 683.438 636.313 684.87 635.115 688.172C632.931 694.195 630 703.226 630 708.317C630 716.432 632.704 732 632.704 732C642.117 732 801.909 732 801.909 732C801.909 732 808.505 710.195 794.294 708.457C780.084 706.718 770.685 705.317 770.685 705.317L692.04 670.257C690.496 669.568 688.689 670.291 688.045 671.853L682.99 684.116C682.99 684.116 669.835 690.254 661.61 690.254C656.603 690.254 648.737 687.223 643.349 684.852Z" fill="#E4E4E4"/>
</g>
<path id="Skirt" fill-rule="evenodd" clip-rule="evenodd" d="M354 15.0001C354 15.0001 455.461 -14.0282 546 15.0001C567 110.813 618.027 148.841 627 295.737C525 346.418 399 259.592 294 309.016C264 239.883 306 73.3937 354 15.0001Z" fill="#2B44FF"/>
</g>
</svg>
