<svg width="900" height="717" viewBox="0 0 900 717" fill="none" xmlns="http://www.w3.org/2000/svg">
<g id="Bottom/Standing/Sprint">
<path id="Leg" fill-rule="evenodd" clip-rule="evenodd" d="M349.932 0.000278296C355.342 73.8292 703.82 291.191 705.853 297.29C707.209 301.355 597.385 554.335 597.385 554.335L627.847 566.172C627.847 566.172 796.298 298.249 787.646 269.7C775.259 228.827 517.266 0.78539 517.266 0.78539L349.932 0.000278296Z" fill="#B28B67"/>
<path id="Pant" fill-rule="evenodd" clip-rule="evenodd" d="M605.401 516.246L655.136 534.351C760.008 416.023 801.116 318.392 793.62 268.648C786.125 218.904 524.173 0.181171 524.173 0.181171L346.366 0.181152C352.433 171.158 675.429 297.94 679.749 305.226C684.069 312.512 641.553 383.871 605.401 516.246Z" fill="#2F3676"/>
<g id="Right Show">
<path id="shoe" fill-rule="evenodd" clip-rule="evenodd" d="M595.137 548.212C592.6 545.783 588.52 545.822 586.265 548.515C582.152 553.428 576.309 560.912 574.568 565.696C571.792 573.321 569.008 588.875 569.008 588.875C577.854 592.095 728.01 646.747 728.01 646.747C728.01 646.747 741.665 628.513 728.906 622.019C716.148 615.525 707.795 610.994 707.795 610.994L645.884 551.15C644.668 549.975 642.723 550.036 641.583 551.284L632.639 561.078C632.639 561.078 618.178 562.346 610.449 559.533C605.744 557.821 599.389 552.283 595.137 548.212Z" fill="#E4E4E4"/>
</g>
<path id="Leg_2" fill-rule="evenodd" clip-rule="evenodd" d="M390 0L234.762 372.681L82.1873 687.751H118.185L512.021 0H390Z" fill="#997659"/>
<g id="Left Shot">
<path id="shoe_2" fill-rule="evenodd" clip-rule="evenodd" d="M88.3489 669.852C85.1337 668.438 81.313 669.87 80.1154 673.172C77.931 679.195 75 688.226 75 693.317C75 701.432 77.7037 717 77.7037 717C87.1175 717 246.909 717 246.909 717C246.909 717 253.505 695.195 239.294 693.457C225.084 691.718 215.685 690.317 215.685 690.317L137.04 655.257C135.496 654.568 133.689 655.291 133.045 656.853L127.99 669.116C127.99 669.116 114.835 675.254 106.61 675.254C101.603 675.254 93.7371 672.223 88.3489 669.852Z" fill="#E4E4E4"/>
</g>
<path id="Pant_2" fill-rule="evenodd" clip-rule="evenodd" d="M95.9656 622.299L175.952 637.299C237.797 546.375 496.622 173.556 525 0H346.932C252.165 125.463 154.917 529.871 95.9656 622.299Z" fill="#5C63AB"/>
</g>
</svg>
