<svg width="900" height="717" viewBox="0 0 900 717" fill="none" xmlns="http://www.w3.org/2000/svg">
<g id="Bottom/Standing/Sweatpants">
<path id="Leg" fill-rule="evenodd" clip-rule="evenodd" d="M384 0L493.893 378.681L545.58 663H597.46L545.673 0L384 0Z" fill="#997659"/>
<path id="Leg_2" fill-rule="evenodd" clip-rule="evenodd" d="M334.613 0C342.281 196.723 339.257 304.021 337.541 321.894C335.825 339.767 326.082 459.469 259.691 669H313.65C401.574 467.991 432.267 348.289 442.351 321.894C452.435 295.499 482.218 188.201 525.7 0H334.613Z" fill="#B28B67"/>
<path id="Pant" fill-rule="evenodd" clip-rule="evenodd" d="M381.641 0C410.226 130.305 459.665 338.305 529.959 624H605.838C611.443 330.761 587.601 137.761 546.314 0L381.641 0Z" fill="#69A1AC"/>
<path id="Pant_2" fill-rule="evenodd" clip-rule="evenodd" d="M334.23 0C341.74 196.723 322.278 390.532 261.992 627.063H342.951C431.036 429.054 494.169 236.201 537.317 0H334.23Z" fill="#89C5CC"/>
<g id="Left Shoe">
<path id="Shoe" fill-rule="evenodd" clip-rule="evenodd" d="M252 708L254.745 663.748C254.864 661.827 256.732 660.513 258.614 660.913C284.616 666.437 320.477 654 320.477 654C356.57 679.566 408.602 691.299 426.924 694.812C430.469 695.492 432.744 699.068 431.759 702.54L427.659 717H320.477H257.955L252 708Z" fill="#191847"/>
</g>
<g id="Right Shoe">
<path id="Shoe_2" fill-rule="evenodd" clip-rule="evenodd" d="M534 708L536.745 663.748C536.864 661.827 538.732 660.513 540.614 660.913C566.616 666.437 602.477 654 602.477 654C638.57 679.566 690.602 691.299 708.924 694.812C712.469 695.492 714.744 699.068 713.759 702.54L709.659 717H602.477H539.955L534 708Z" fill="#191847"/>
</g>
</g>
</svg>
